<?xml version="1.0" encoding="UTF-8" standalone="no"?>
<svg xmlns="http://www.w3.org/2000/svg" version="1.1" height="332.42093" width="2000.0028">
  <title>CQC</title>
  <g transform="translate(564.64286,-281.47024)">
    <path d="m -362.82791,281.47024 c -95.66707,0 -184.17331,72.15514 -198.44998,161.78711 l -1.41226,8.83842 c -14.27645,89.63198 51.24627,161.7914 146.91335,161.7914 l 66.16574,0 115.95529,0 119.67698,0 66.157143,0 70.56563,0 7.05271,0 15.9512,-100.16292 -69.14479,0 0.009,-0.0172 c -0.16945,10e-4 -0.33707,0.0172 -0.50652,0.0172 l -193.801143,0 -190.53878,0 c -38.92893,0 -65.77751,-29.45478 -60.19906,-66.04554 5.57845,-36.59077 41.41088,-66.04983 80.33982,-66.04983 l 191.43593,0 192.9039829,0 c 0.47296,0 0.93015,0.0384 1.39938,0.0472 l 0.009,-0.0472 69.1404801,0 15.9512,-100.15864 -7.05269,0 -70.5656201,0 -66.1571699,0 -119.672663,0 -115.96389,0 -66.15714,0 -0.004,0 z m 629.57897,0.004 c -95.667,0 -184.177787,72.15514 -198.454287,161.78712 l -1.40796,8.83842 c -14.27652,89.63198 51.246337,161.7914 146.913337,161.7914 l 66.16146,0 166.20843,0 69.4281,0 66.1572,0 c 95.667,0 184.1778,-72.15942 198.4543,-161.7914 l 1.4079,-8.83842 c 14.2765,-89.63198 -51.2506,-161.78712 -146.9176,-161.78712 l -66.1572,0 -235.63653,0 -66.15715,0 z m 723.03258,0 c -95.6671,0 -184.1776,72.15514 -198.4543,161.78712 l -1.4079,8.83842 c -14.2765,89.63198 51.2462,161.7914 146.9133,161.7914 l 66.16146,0 115.9596,0 119.6769,0 66.1572,0 70.5656,0 7.0527,0 15.9512,-100.16293 -69.1448,0 0.01,-0.0215 c -0.1695,10e-4 -0.3371,0.0215 -0.5065,0.0215 l -193.8012,0 -190.53866,0 c -38.929,0 -65.7775,-29.45477 -60.1991,-66.04554 5.5785,-36.59076 41.4109,-66.04983 80.3398,-66.04983 l 191.43586,0 192.904,0 c 0.473,0 0.9302,0.0384 1.3994,0.0472 l 0.01,-0.0472 69.1405,0 15.9512,-100.15864 -7.0527,0 -70.5656,0 -66.1572,0 -119.6727,0 -115.9639,0 -66.15706,0 0,0 z m -748.30297,100.15864 384.33987,0 c 38.929,0 65.7776,29.45907 60.1991,66.04983 -5.5785,36.59077 -41.4109,66.04554 -80.3398,66.04554 l -51.4594,0 10.5168,-66.04554 -184.18574,0 -10.5211,66.04554 -148.69048,0 c -38.92889,0 -65.77757,-29.45477 -60.19907,-66.04554 5.57849,-36.59076 41.41093,-66.04983 80.33982,-66.04983 z" style="fill:#000000;" />
  </g>
</svg>
