<?xml version="1.0" encoding="UTF-8" ?>
<!DOCTYPE svg PUBLIC "-//W3C//DTD SVG 1.1//EN" "http://www.w3.org/Graphics/SVG/1.1/DTD/svg11.dtd">
<svg width="389.25pt" height="144.75pt" viewBox="0 0 1618 600" version="1.1" xmlns="http://www.w3.org/2000/svg">
<g id="#005c82ff">
<path fill="#005c82" opacity="1.00" d=" M 86.77 19.10 C 87.49 13.39 87.04 7.22 89.96 2.04 C 91.74 4.13 92.99 6.59 93.93 9.15 C 97.84 19.37 101.25 29.78 104.44 40.24 C 107.80 36.59 110.70 32.54 113.29 28.31 C 117.05 22.36 115.65 14.91 118.07 8.49 C 123.68 11.16 126.77 17.32 128.43 23.03 C 129.53 31.90 124.84 40.10 122.26 48.33 C 130.56 41.24 138.41 33.53 147.57 27.51 C 149.26 26.28 151.33 25.87 153.35 25.59 C 153.11 30.91 150.50 35.64 148.28 40.35 C 144.70 47.69 140.34 54.62 136.57 61.85 C 143.08 61.35 149.66 61.13 156.09 59.92 C 162.26 58.75 163.79 50.62 169.91 49.55 C 170.40 56.01 168.33 62.47 165.06 67.98 C 160.64 73.78 153.11 75.54 146.72 78.32 C 154.42 81.77 162.03 85.40 169.42 89.46 C 171.57 90.73 174.35 91.49 175.55 93.89 C 175.57 95.28 174.96 96.25 173.73 96.81 C 169.48 98.93 164.58 98.94 160.03 100.01 C 155.72 101.05 151.34 101.82 146.92 102.17 C 150.46 106.23 154.08 110.22 157.98 113.94 C 162.82 118.48 167.49 123.65 169.28 130.21 C 158.89 131.86 148.70 128.22 138.52 126.69 C 144.12 132.55 147.21 140.09 150.80 147.22 C 151.79 149.13 152.11 151.27 152.37 153.37 C 142.05 151.73 132.83 146.23 122.59 144.15 C 124.85 152.07 129.10 160.39 126.32 168.74 C 116.39 166.56 108.07 160.16 101.69 152.46 C 100.42 163.74 99.19 175.16 95.53 185.96 C 95.02 187.36 93.53 189.93 92.01 188.09 C 89.62 184.81 88.83 180.70 87.72 176.87 C 85.68 169.35 84.15 161.71 82.58 154.09 C 79.58 156.90 76.34 159.47 73.58 162.53 C 68.56 168.34 66.80 176.11 62.21 182.18 C 58.86 176.68 57.51 170.22 56.67 163.91 C 55.94 157.36 58.00 151.00 59.88 144.83 C 49.46 149.77 39.52 155.80 28.80 160.08 C 29.68 155.80 32.39 152.28 34.53 148.58 C 38.12 142.83 41.47 136.95 44.90 131.12 C 43.83 130.03 42.75 128.81 41.09 128.82 C 35.93 128.19 30.23 126.94 25.41 129.53 C 21.44 131.50 18.08 134.70 13.67 135.73 C 13.74 129.41 16.63 123.34 20.66 118.59 C 24.76 115.00 29.92 112.90 34.12 109.44 C 33.50 108.43 32.24 108.28 31.24 107.86 C 24.31 105.61 17.40 103.22 10.72 100.30 C 8.19 99.22 5.82 97.81 3.78 95.95 C 8.19 92.65 13.84 92.14 19.04 90.96 C 24.05 89.82 29.25 89.57 34.21 88.22 C 31.30 84.37 27.81 80.98 24.21 77.78 C 19.02 73.11 11.32 73.33 5.91 68.99 C 8.94 65.57 13.62 64.65 17.88 63.70 C 26.65 61.87 35.60 63.46 44.37 64.31 C 42.06 57.80 39.17 51.48 35.23 45.78 C 32.98 42.06 29.49 38.57 29.79 33.90 C 40.25 36.15 49.21 42.52 58.73 47.13 C 60.04 42.93 61.91 38.40 60.57 33.99 C 57.71 28.36 51.90 24.80 49.44 18.92 C 55.97 17.70 63.34 18.12 69.00 21.89 C 74.29 26.77 76.78 33.78 79.53 40.25 C 83.24 33.76 86.41 26.68 86.77 19.10 M 81.12 48.29 C 71.36 50.17 62.16 54.99 55.18 62.09 C 43.96 73.05 38.41 89.60 41.04 105.09 C 42.91 117.15 49.48 128.37 58.96 136.03 C 69.24 144.43 82.97 148.61 96.18 146.88 C 109.10 145.40 121.29 138.52 129.34 128.33 C 137.43 118.20 141.47 104.83 139.95 91.92 C 138.64 79.13 132.07 66.98 122.13 58.83 C 110.91 49.51 95.45 45.45 81.12 48.29 Z" />
<path fill="#005c82" opacity="1.00" d=" M 256.41 46.52 C 268.08 41.28 281.17 38.62 293.93 40.20 C 297.72 41.55 293.41 43.94 291.41 44.44 C 273.02 50.63 254.02 59.12 242.28 75.29 C 228.27 93.28 224.98 116.86 224.07 138.99 C 222.73 161.92 225.75 185.01 222.42 207.83 C 220.75 219.23 218.05 230.55 213.43 241.13 C 210.65 247.18 207.19 253.26 201.60 257.13 C 200.82 241.42 200.82 225.69 200.38 209.98 C 200.05 183.65 199.34 157.26 201.07 130.96 C 203.26 112.65 209.25 94.70 218.94 78.98 C 227.73 64.65 241.24 53.57 256.41 46.52 Z" />
<path fill="#005c82" opacity="1.00" d=" M 371.93 232.81 C 393.61 241.36 415.00 251.45 438.14 255.46 C 442.05 256.12 446.04 255.50 449.97 256.01 C 453.20 257.15 455.31 260.10 457.65 262.44 C 462.72 268.04 468.07 273.39 472.76 279.32 C 476.32 283.75 480.63 287.58 483.77 292.35 C 485.69 294.85 484.37 298.36 486.05 300.96 C 489.26 306.60 494.68 310.34 499.39 314.59 C 503.03 318.03 505.03 322.99 505.00 327.98 C 505.02 335.64 504.99 343.31 505.02 350.97 C 505.03 353.02 504.88 355.75 502.63 356.62 C 499.77 357.19 497.18 355.52 494.73 354.33 C 488.09 350.95 481.92 346.57 476.87 341.08 C 474.96 339.07 473.95 335.90 475.54 333.39 C 477.74 329.98 481.03 327.21 482.16 323.18 C 476.16 322.14 470.06 326.47 464.29 323.67 C 460.09 320.56 460.92 314.66 460.30 310.07 C 460.05 304.54 458.48 298.97 454.55 294.90 C 457.19 285.31 453.00 275.45 446.70 268.28 C 442.93 263.29 437.21 259.98 431.04 259.06 C 425.21 258.00 419.57 260.37 413.91 261.35 C 409.50 262.24 405.30 260.09 401.21 258.78 C 391.03 254.92 380.76 251.15 371.02 246.25 C 371.90 244.15 372.96 242.11 373.54 239.90 C 373.69 237.44 372.50 235.15 371.93 232.81 Z" />
<path fill="#005c82" opacity="1.00" d=" M 206.08 390.24 C 210.35 388.87 214.60 387.18 219.06 386.53 C 222.82 387.94 222.30 392.71 222.46 395.97 C 221.94 408.95 223.41 422.06 221.10 434.92 C 219.91 441.52 217.09 448.70 210.72 451.84 C 198.67 458.17 186.50 464.27 174.30 470.29 C 165.84 474.58 156.94 478.47 149.85 484.93 C 146.04 488.40 143.41 493.71 144.70 498.92 C 146.65 508.80 154.38 515.89 161.23 522.66 C 165.27 526.92 170.22 530.75 172.39 536.39 C 174.25 541.51 171.70 546.65 171.04 551.72 C 174.61 553.24 178.56 553.97 181.84 556.13 C 185.09 558.62 184.71 563.16 186.38 566.54 C 193.07 575.60 200.90 584.06 205.63 594.39 C 193.55 594.45 181.46 594.46 169.38 594.39 C 167.04 584.33 163.00 574.80 159.90 564.98 C 158.57 561.55 157.49 557.79 154.81 555.14 C 151.30 551.80 145.73 553.00 141.99 550.12 C 139.89 548.78 140.83 546.07 140.75 544.04 C 141.28 539.27 138.31 535.12 135.62 531.50 C 126.98 520.73 115.46 511.65 110.88 498.16 C 109.13 492.57 108.81 484.92 114.26 481.23 C 121.64 475.86 130.08 472.21 138.25 468.25 C 148.81 463.35 159.11 457.94 169.37 452.47 C 177.63 447.91 185.97 443.32 193.26 437.26 C 196.45 434.48 199.80 431.30 200.64 426.96 C 202.29 416.68 201.01 406.19 202.27 395.88 C 202.43 393.51 203.67 390.99 206.08 390.24 Z" />
<path fill="#005c82" opacity="1.00" d=" M 345.40 417.36 C 349.91 415.94 354.93 417.54 359.61 416.69 L 360.17 416.61 C 359.98 419.53 359.98 422.47 359.96 425.40 C 362.90 425.59 365.84 425.70 368.79 425.79 C 368.92 422.77 369.04 419.76 369.15 416.74 C 373.17 416.61 377.20 416.61 381.23 416.74 C 381.27 419.72 381.32 422.71 381.37 425.69 C 384.45 425.68 387.54 425.67 390.63 425.65 C 390.68 422.69 390.73 419.74 390.79 416.79 C 395.50 416.59 400.22 416.59 404.94 416.77 C 405.03 423.25 405.01 429.73 404.95 436.21 C 402.35 436.26 399.75 436.31 397.16 436.36 C 396.84 451.18 397.01 466.02 397.03 480.84 L 397.50 480.89 C 404.45 481.33 411.42 480.57 418.36 481.26 C 417.98 487.60 417.92 493.98 418.38 500.32 C 422.50 500.89 426.68 501.06 430.83 500.57 C 430.88 487.70 430.74 474.83 430.87 461.97 C 431.13 453.17 430.94 444.37 431.00 435.57 C 436.33 435.57 441.66 435.57 447.00 435.57 C 447.00 439.15 447.00 442.72 447.00 446.30 C 451.67 446.31 456.33 446.31 461.00 446.30 C 461.00 442.72 461.00 439.15 461.00 435.57 C 465.40 435.56 469.80 435.56 474.20 435.58 C 474.20 439.13 474.20 442.69 474.18 446.25 C 478.45 446.33 482.72 446.31 487.00 446.30 C 487.00 442.72 487.00 439.15 487.00 435.57 C 492.33 435.57 497.66 435.57 503.00 435.57 C 502.99 486.73 503.02 537.89 502.99 589.05 C 503.00 590.85 503.08 592.65 503.24 594.45 L 502.73 594.38 C 491.18 593.59 479.57 594.27 468.00 594.03 C 432.99 594.16 397.99 593.98 362.98 594.22 C 324.91 593.73 286.81 594.27 248.74 594.06 C 249.52 572.71 248.24 551.35 248.95 530.00 C 248.81 498.56 249.25 467.11 248.73 435.68 C 253.99 436.12 259.27 436.05 264.52 435.57 C 264.12 439.11 264.06 442.68 264.08 446.24 C 268.60 447.23 273.26 446.90 277.85 446.73 C 278.09 443.31 277.15 439.62 278.37 436.38 C 282.17 435.28 286.34 436.30 290.28 435.75 C 289.98 439.47 289.81 443.25 290.71 446.92 C 294.93 446.82 299.16 446.96 303.36 446.48 C 303.94 443.15 303.29 439.56 304.38 436.38 C 309.12 435.24 314.26 436.38 319.15 435.84 C 319.10 449.55 318.81 463.26 319.29 476.96 C 319.58 484.78 318.73 492.59 319.23 500.40 C 323.40 500.97 327.63 501.05 331.81 500.56 C 331.84 494.04 331.84 487.52 331.79 481.00 C 338.72 480.93 345.66 481.13 352.59 480.92 L 352.86 480.90 C 352.89 466.13 352.68 451.36 352.92 436.59 C 350.24 436.17 347.53 436.14 344.85 436.40 C 345.05 430.07 344.25 423.55 345.40 417.36 M 368.04 459.99 C 367.14 466.96 366.87 474.00 366.21 481.00 C 372.26 480.99 378.32 481.01 384.37 480.99 C 383.88 473.94 383.46 466.89 382.64 459.87 C 382.11 455.64 379.02 451.54 375.04 450.14 C 371.37 452.10 368.40 455.75 368.04 459.99 M 276.45 478.81 C 275.48 485.93 275.14 493.12 274.62 500.29 C 280.76 500.31 286.90 500.30 293.04 500.30 C 292.90 492.88 292.53 485.42 291.20 478.11 C 290.47 474.04 287.34 471.09 284.03 468.93 C 280.65 471.39 277.11 474.43 276.45 478.81 M 465.42 469.29 C 461.66 471.52 458.53 475.36 458.33 479.88 C 458.00 486.69 457.40 493.49 457.16 500.30 C 463.32 500.30 469.49 500.32 475.65 500.29 C 475.09 493.00 474.58 485.69 473.34 478.49 C 472.43 474.50 469.44 470.35 465.42 469.29 M 285.22 520.55 L 285.42 520.67 C 283.50 525.68 279.97 530.44 274.32 531.35 C 274.29 532.09 274.22 533.56 274.19 534.29 C 277.50 534.63 282.70 532.99 284.31 536.95 C 284.77 547.30 284.12 557.67 284.20 568.03 C 284.21 569.63 284.10 571.45 282.72 572.52 C 279.74 572.85 276.73 572.67 273.74 572.81 C 273.76 574.39 273.79 575.99 273.86 577.59 C 283.88 577.53 293.91 577.60 303.94 577.56 C 303.93 575.85 303.90 574.15 303.86 572.46 C 300.82 572.42 297.78 572.42 294.74 572.41 C 294.46 571.75 293.89 570.43 293.60 569.77 C 294.20 565.54 293.88 561.25 293.96 557.00 C 293.80 544.76 294.28 532.47 293.73 520.27 C 290.94 519.81 287.95 519.75 285.22 520.55 M 331.32 523.90 C 331.07 531.86 330.66 539.86 331.25 547.81 C 333.64 548.50 334.77 545.65 336.66 544.75 C 340.68 542.47 347.25 543.09 349.17 547.86 C 351.07 552.63 350.36 557.92 350.38 562.94 C 350.55 567.68 347.13 573.15 342.01 573.24 C 339.27 573.62 337.10 571.50 336.20 569.12 C 337.96 566.61 340.91 563.82 339.51 560.45 C 338.21 557.05 332.84 557.08 331.46 560.39 C 330.12 565.30 331.11 571.39 335.43 574.57 C 341.05 578.68 349.30 577.90 354.71 573.79 C 359.85 570.03 362.26 563.34 361.43 557.11 C 360.99 551.73 358.92 545.76 353.81 543.16 C 348.90 540.84 343.21 542.33 338.10 540.87 C 334.38 538.92 336.68 533.99 336.25 530.69 C 342.12 529.93 348.11 530.58 353.96 529.52 C 358.06 528.75 360.44 523.80 358.91 520.07 C 357.36 519.22 355.57 520.13 353.92 520.08 C 347.29 520.60 340.68 519.43 334.06 519.44 C 331.51 519.12 331.49 522.17 331.32 523.90 M 398.35 520.43 C 393.59 522.22 390.86 527.09 389.80 531.83 C 387.81 540.72 388.42 549.90 388.53 558.94 C 388.65 564.08 389.27 569.89 393.57 573.37 C 397.69 576.85 403.70 576.99 408.64 575.45 C 413.89 573.56 416.72 568.09 417.72 562.90 C 419.18 555.03 419.25 546.94 418.69 538.97 C 418.20 533.96 417.58 528.63 414.53 524.45 C 410.89 519.60 403.84 518.32 398.35 520.43 M 448.07 519.83 C 446.87 522.34 447.26 525.21 447.05 527.92 C 446.89 534.53 446.13 541.22 447.10 547.80 C 449.54 548.48 450.67 545.49 452.63 544.60 C 456.30 542.82 461.76 542.96 464.28 546.61 C 466.65 549.91 466.13 554.18 466.23 558.02 C 466.24 562.27 466.65 567.12 463.48 570.47 C 460.83 574.12 454.22 574.40 452.27 569.91 C 452.62 567.04 455.93 565.18 455.62 562.07 C 455.72 560.27 454.13 559.08 453.20 557.74 C 451.11 558.08 448.22 557.83 447.38 560.32 C 446.14 563.73 446.49 567.73 447.85 571.06 C 453.68 577.88 465.11 577.40 471.24 571.23 C 475.89 566.95 477.37 560.15 476.19 554.10 C 475.56 549.02 473.02 543.62 468.06 541.54 C 463.32 539.78 458.12 540.93 453.29 539.70 C 449.78 538.25 450.93 533.63 451.90 530.85 C 457.94 529.60 464.29 530.86 470.31 529.34 C 474.38 528.40 476.49 522.96 474.37 519.47 C 465.68 521.55 456.74 518.67 448.07 519.83 Z" />
<path fill="#005c82" opacity="1.00" d=" M 625.07 504.17 C 640.27 502.48 656.34 507.93 666.68 519.35 C 684.23 537.90 680.84 571.24 660.53 586.45 C 641.14 600.85 610.88 598.48 594.55 580.45 C 578.41 562.36 580.17 531.35 598.41 515.34 C 605.75 508.78 615.31 505.00 625.07 504.17 M 620.42 511.58 C 610.81 515.06 605.49 525.31 604.01 534.91 C 602.46 547.47 603.49 560.65 608.71 572.30 C 612.31 579.88 618.25 587.36 626.88 589.19 C 633.92 590.60 642.07 589.68 647.56 584.67 C 654.18 578.74 657.50 569.81 657.93 561.07 C 658.23 553.01 658.18 544.82 656.00 536.99 C 653.93 528.17 649.34 519.70 642.00 514.19 C 635.81 509.79 627.52 509.48 620.42 511.58 Z" />
<path fill="#005c82" opacity="1.00" d=" M 744.47 504.71 C 746.73 504.58 750.32 503.28 751.49 506.03 C 752.40 511.97 752.38 518.05 752.01 524.05 C 752.23 525.47 750.34 527.15 749.12 525.92 C 747.63 523.69 747.48 520.87 746.35 518.47 C 744.63 514.87 741.32 511.70 737.18 511.40 C 731.48 511.04 725.73 511.07 720.03 511.35 C 716.43 511.78 715.16 515.91 715.41 519.03 C 715.56 527.29 715.20 535.58 715.58 543.84 L 716.05 544.70 C 720.35 545.35 724.71 544.86 729.04 545.03 C 731.34 544.90 733.98 545.42 735.95 543.89 C 738.76 541.93 739.27 538.00 742.05 536.03 C 744.51 535.82 744.27 539.24 744.05 540.92 C 743.08 547.42 744.23 553.93 744.13 560.44 C 738.42 561.65 739.74 552.27 734.56 551.49 C 729.40 550.83 724.14 551.32 718.95 551.19 C 717.18 551.05 714.50 551.64 714.74 553.96 C 714.68 563.29 714.60 572.64 714.78 581.97 C 715.08 587.12 720.85 588.73 724.99 589.81 C 726.80 589.89 729.20 591.78 727.49 593.59 C 724.78 594.53 721.82 594.17 719.02 594.13 C 709.35 593.35 699.63 593.57 689.98 594.40 C 688.22 594.39 685.10 594.98 685.20 592.35 C 687.58 588.44 693.48 589.78 696.20 586.19 C 697.74 584.11 697.78 581.39 697.82 578.92 C 697.78 559.62 697.81 540.33 697.81 521.04 C 697.85 517.50 697.09 513.07 693.42 511.53 C 690.50 510.01 685.07 510.45 685.60 505.85 C 695.06 504.94 704.51 506.30 713.98 506.00 C 724.15 505.81 734.42 506.70 744.47 504.71 Z" />
<path fill="#005c82" opacity="1.00" d=" M 1012.33 505.39 C 1013.94 503.43 1016.68 503.92 1018.94 503.78 C 1026.30 503.90 1033.67 503.62 1041.03 503.91 C 1042.43 503.74 1043.15 505.16 1044.07 505.96 C 1058.66 522.43 1072.33 539.68 1086.81 556.25 C 1090.59 560.19 1093.73 564.80 1098.11 568.15 C 1099.13 557.80 1098.30 547.35 1098.57 536.97 C 1098.50 529.98 1098.68 522.99 1098.52 516.01 C 1098.33 511.40 1093.34 509.59 1089.62 508.49 C 1087.69 507.68 1084.36 507.70 1084.69 504.81 C 1089.60 503.06 1094.92 504.04 1100.03 503.81 C 1106.08 503.89 1112.15 503.51 1118.19 504.18 C 1118.03 505.52 1118.45 507.32 1116.79 507.85 C 1113.77 509.26 1110.19 509.41 1107.51 511.52 C 1105.92 513.29 1105.88 515.82 1105.72 518.06 C 1105.53 529.68 1106.01 541.32 1105.35 552.93 C 1104.90 564.27 1104.51 575.69 1105.97 586.98 C 1106.51 590.14 1105.93 593.31 1105.22 596.39 C 1099.53 595.72 1094.88 591.97 1091.30 587.75 C 1078.24 573.45 1065.31 559.04 1052.15 544.82 C 1046.90 539.19 1042.21 533.02 1036.40 527.94 L 1036.12 527.69 C 1035.50 529.73 1034.94 531.83 1035.00 533.99 C 1034.97 545.99 1035.21 558.00 1035.03 570.00 C 1035.08 574.03 1034.70 578.13 1035.71 582.09 C 1036.80 585.77 1040.12 588.34 1043.80 589.15 C 1046.24 590.01 1050.51 589.85 1050.07 593.52 C 1041.45 595.24 1032.72 592.78 1024.05 593.92 C 1021.24 593.96 1017.00 595.25 1015.48 592.07 C 1016.63 589.82 1019.43 589.56 1021.43 588.38 C 1025.28 586.53 1026.46 581.93 1026.92 578.04 C 1029.02 560.10 1029.38 542.01 1029.32 523.96 C 1029.31 520.95 1028.71 517.74 1026.62 515.45 C 1023.72 512.35 1019.68 510.75 1015.82 509.21 C 1014.23 508.50 1011.89 507.54 1012.33 505.39 Z" />
<path fill="#005c82" opacity="1.00" d=" M 1426.60 517.57 C 1438.79 505.57 1457.24 501.28 1473.80 504.57 C 1480.12 505.34 1486.33 506.85 1492.28 509.12 C 1493.73 515.28 1494.76 521.64 1494.45 527.98 C 1494.49 530.81 1490.49 530.38 1489.75 528.23 C 1487.17 523.65 1485.19 518.36 1480.66 515.29 C 1473.64 510.67 1464.54 509.76 1456.49 511.76 C 1447.30 514.28 1440.29 521.87 1436.66 530.45 C 1432.30 541.61 1432.65 554.08 1435.52 565.57 C 1437.55 573.60 1442.65 580.76 1449.42 585.51 C 1454.15 588.83 1460.18 589.74 1465.84 589.19 C 1470.64 588.75 1475.59 585.95 1477.17 581.17 C 1478.85 575.59 1478.34 569.64 1477.99 563.91 C 1474.98 561.11 1471.07 559.63 1467.04 559.16 C 1465.25 558.99 1462.64 558.28 1462.73 556.03 C 1463.23 554.08 1465.41 554.33 1466.97 554.28 C 1473.34 554.03 1479.68 555.08 1486.06 554.80 C 1490.72 554.71 1495.35 553.82 1500.02 553.97 C 1501.86 553.81 1502.82 556.49 1501.45 557.68 C 1498.89 559.38 1494.83 559.34 1493.72 562.72 C 1491.92 567.94 1491.78 573.60 1492.08 579.07 C 1492.25 581.78 1495.68 584.04 1494.06 586.81 C 1485.52 590.89 1476.77 595.46 1467.11 595.88 C 1459.50 595.77 1451.75 595.83 1444.45 593.39 C 1433.14 589.97 1422.81 582.27 1417.37 571.66 C 1407.93 554.30 1412.08 530.88 1426.60 517.57 Z" />
<path fill="#005c82" opacity="1.00" d=" M 968.39 505.49 C 979.90 504.79 991.49 506.42 1002.99 504.99 C 1005.26 504.81 1011.09 504.98 1008.58 508.58 C 1005.31 510.06 1001.35 510.12 998.59 512.63 C 996.21 514.72 996.18 518.11 996.17 521.02 C 996.28 541.04 996.08 561.07 996.27 581.09 C 996.07 585.76 1000.45 588.49 1004.50 589.36 C 1006.08 590.13 1009.02 589.87 1009.28 592.12 C 1009.32 594.48 1006.53 593.86 1004.97 594.18 C 997.32 594.29 989.69 593.39 982.03 593.67 C 976.98 593.38 971.94 595.23 966.93 594.08 C 966.86 593.55 966.72 592.51 966.65 591.98 C 969.46 588.49 975.09 589.46 978.12 586.10 C 979.67 584.47 979.83 582.12 979.82 580.00 C 979.80 560.32 979.78 540.63 979.83 520.95 C 979.83 518.04 979.93 514.59 977.44 512.56 C 974.67 510.59 971.11 510.41 968.13 508.92 C 967.11 508.06 966.87 505.96 968.39 505.49 Z" />
<path fill="#005c82" opacity="1.00" d=" M 1149.06 505.76 C 1158.31 504.71 1167.76 504.13 1176.96 505.93 C 1181.92 506.90 1187.08 508.48 1190.80 512.09 C 1195.28 516.75 1196.17 523.87 1194.94 529.98 C 1192.96 537.44 1186.51 543.11 1179.16 545.02 C 1181.91 546.92 1185.30 547.31 1188.34 548.58 C 1194.70 551.09 1199.72 557.05 1200.51 563.92 C 1201.22 570.56 1200.83 578.01 1196.36 583.37 C 1190.97 589.88 1182.53 592.73 1174.53 594.43 C 1165.44 595.93 1156.17 595.07 1147.04 594.48 C 1139.70 594.08 1132.34 595.30 1125.03 594.24 C 1123.10 594.07 1122.98 591.06 1124.99 590.87 C 1128.97 589.22 1135.85 588.71 1135.92 583.07 C 1136.08 561.36 1136.01 539.63 1135.96 517.92 C 1136.33 513.81 1132.59 511.09 1128.91 510.56 C 1126.55 510.29 1122.95 509.18 1124.16 506.04 C 1132.39 504.51 1140.78 506.77 1149.06 505.76 M 1156.36 511.29 C 1153.45 512.71 1153.70 516.29 1153.67 519.02 C 1153.76 525.67 1153.59 532.33 1153.74 538.98 C 1153.83 540.49 1154.02 542.87 1156.03 543.00 C 1161.62 544.25 1167.82 542.90 1172.57 539.72 C 1177.93 535.50 1177.84 528.01 1176.88 521.88 C 1176.28 516.21 1171.62 511.10 1165.84 510.56 C 1162.69 510.33 1159.30 509.95 1156.36 511.29 M 1156.27 549.41 C 1154.61 550.29 1153.04 551.91 1153.23 553.94 C 1153.20 561.99 1153.07 570.06 1153.31 578.11 C 1153.10 582.85 1157.32 587.16 1162.01 587.30 C 1168.08 587.57 1174.02 584.23 1177.24 579.14 C 1181.05 573.75 1181.47 566.52 1179.56 560.36 C 1176.15 551.48 1165.18 546.77 1156.27 549.41 Z" />
<path fill="#005c82" opacity="1.00" d=" M 1210.39 506.10 C 1213.96 504.09 1218.16 504.81 1222.06 505.01 C 1230.33 505.90 1238.66 505.47 1246.97 505.56 C 1248.26 505.60 1249.97 505.56 1250.61 507.02 C 1250.42 509.50 1247.70 509.65 1245.95 510.57 C 1242.01 511.85 1239.11 515.74 1239.23 519.90 C 1239.13 531.27 1239.24 542.64 1239.19 554.01 C 1238.85 561.40 1239.71 569.07 1243.38 575.63 C 1246.06 581.02 1251.82 584.01 1257.44 585.43 C 1265.65 587.01 1275.25 585.53 1281.12 579.11 C 1286.75 572.89 1288.31 564.16 1288.57 556.05 C 1288.56 546.04 1288.59 536.02 1288.55 526.01 C 1288.26 521.26 1287.98 516.04 1284.86 512.19 C 1282.60 509.28 1276.83 510.37 1276.65 505.89 C 1281.69 504.85 1286.87 505.44 1291.98 505.31 C 1297.20 505.43 1302.45 505.04 1307.66 505.46 C 1309.13 505.83 1308.84 507.12 1308.39 508.22 C 1305.21 510.34 1300.57 510.64 1298.73 514.45 C 1296.29 520.28 1297.06 526.78 1296.61 532.95 C 1295.94 542.96 1296.33 553.00 1295.58 563.00 C 1294.57 576.19 1285.45 588.37 1273.12 593.12 C 1265.55 596.34 1257.04 596.20 1249.08 594.81 C 1241.03 593.31 1233.27 589.15 1228.32 582.52 C 1224.14 576.55 1222.10 569.25 1221.99 562.01 C 1221.97 548.30 1222.06 534.59 1221.96 520.89 C 1221.95 517.47 1221.38 513.60 1218.54 511.32 C 1215.99 509.27 1212.08 509.21 1210.39 506.10 Z" />
<path fill="#005c82" opacity="1.00" d=" M 1338.09 505.67 C 1348.27 504.56 1358.90 503.87 1368.75 507.26 C 1374.49 509.20 1379.70 513.44 1381.73 519.28 C 1384.21 526.70 1383.10 535.73 1377.42 541.43 C 1374.28 545.03 1369.95 547.18 1365.65 549.05 C 1373.73 561.42 1381.91 574.11 1393.40 583.63 C 1398.40 587.75 1405.24 587.34 1411.33 587.85 C 1413.03 592.65 1408.22 595.86 1404.00 596.17 C 1396.28 596.74 1387.85 597.11 1380.96 592.96 C 1376.63 590.38 1373.38 586.46 1370.69 582.28 C 1366.48 576.75 1362.34 571.16 1358.77 565.20 C 1356.99 562.25 1355.87 558.94 1353.81 556.19 C 1351.31 552.98 1347.00 551.87 1343.11 552.16 C 1342.22 553.98 1342.43 556.05 1342.40 558.01 C 1342.49 565.33 1342.36 572.65 1342.44 579.97 C 1342.44 583.41 1343.78 587.29 1347.20 588.70 C 1350.16 590.48 1355.78 589.21 1355.63 594.09 C 1345.10 594.96 1334.53 593.67 1323.99 594.32 C 1319.81 594.37 1315.55 595.62 1311.48 594.22 C 1312.31 589.52 1317.86 590.05 1321.18 588.19 C 1324.43 586.91 1324.92 582.99 1324.82 579.96 C 1324.71 558.94 1324.95 537.93 1324.71 516.92 C 1324.55 511.90 1319.06 510.67 1315.09 509.95 C 1313.04 509.77 1312.96 507.40 1312.58 505.90 C 1321.07 504.69 1329.59 506.82 1338.09 505.67 M 1345.46 510.62 C 1343.14 511.83 1343.03 514.77 1342.72 517.03 C 1342.10 523.99 1342.59 530.99 1342.41 537.98 C 1342.49 540.56 1342.05 543.31 1343.13 545.76 C 1344.58 548.12 1347.60 547.60 1349.97 547.58 C 1355.18 547.35 1360.01 544.11 1362.59 539.64 C 1364.93 535.19 1365.81 529.98 1365.03 525.00 C 1364.45 520.50 1363.06 515.59 1359.16 512.83 C 1355.27 510.12 1349.96 509.15 1345.46 510.62 Z" />
<path fill="#005c82" opacity="1.00" d=" M 786.74 505.90 C 795.83 504.89 804.93 506.25 814.03 506.00 C 824.69 505.84 835.37 506.42 846.01 505.49 C 847.95 505.31 849.91 505.43 851.85 505.71 C 852.57 511.85 853.97 517.93 854.16 524.12 C 854.46 525.96 852.47 525.74 851.32 525.64 C 848.59 521.87 848.55 516.21 844.13 513.70 C 838.90 509.73 832.02 511.62 825.99 511.17 C 822.65 510.90 817.67 511.83 817.52 516.03 C 817.43 525.34 817.21 534.69 817.64 543.99 C 818.09 547.15 821.70 546.14 823.94 546.33 C 827.91 546.12 831.99 546.79 835.89 545.87 C 839.85 544.25 839.95 539.31 842.27 536.25 C 844.02 535.28 845.38 537.25 844.98 538.88 C 844.01 547.24 844.59 555.66 844.41 564.06 C 843.01 563.87 841.17 563.88 840.84 562.15 C 839.22 558.63 838.87 552.78 833.92 552.50 C 828.38 552.53 822.70 551.80 817.28 553.23 C 816.75 562.52 817.04 571.83 817.06 581.13 C 816.96 584.33 818.25 588.56 821.96 589.01 C 826.60 589.63 831.31 589.22 835.99 589.30 C 842.01 589.33 848.62 587.18 851.69 581.61 C 854.00 578.91 854.58 573.90 858.89 573.77 C 859.68 580.71 856.70 587.32 854.76 593.84 C 854.42 595.58 852.24 595.01 851.01 595.21 C 833.01 595.31 815.00 594.92 797.01 595.48 C 793.95 594.92 790.88 594.56 787.81 594.14 C 785.48 593.93 786.62 590.67 788.42 590.66 C 792.45 589.33 798.47 588.48 798.82 583.15 C 799.26 563.11 798.84 543.04 799.02 523.00 C 798.90 520.05 799.32 516.85 797.95 514.13 C 795.50 510.67 790.64 511.03 787.38 508.77 C 787.22 508.05 786.90 506.62 786.74 505.90 Z" />
<path fill="#005c82" opacity="1.00" d=" M 865.10 506.27 C 873.06 505.16 881.03 507.10 889.01 506.51 C 903.30 505.68 918.18 503.96 931.95 508.98 C 941.71 512.11 949.91 519.21 955.11 527.97 C 961.12 538.06 961.61 550.64 958.82 561.82 C 955.73 574.74 946.53 585.86 934.74 591.84 C 932.33 593.12 929.53 593.20 926.89 593.62 C 919.92 594.49 912.87 595.49 905.84 594.75 C 896.91 593.90 887.93 594.27 878.97 594.19 C 873.92 594.11 868.84 594.94 863.84 594.09 C 863.76 593.58 863.61 592.55 863.54 592.04 C 865.54 589.53 869.29 589.98 871.98 588.54 C 875.00 587.44 876.18 584.01 876.00 581.03 C 876.02 560.69 875.97 540.34 876.02 520.00 C 875.92 517.59 876.11 514.66 874.08 512.95 C 871.50 511.08 868.21 510.82 865.30 509.72 C 863.79 509.25 863.16 506.56 865.10 506.27 M 894.18 513.02 C 892.60 517.17 893.08 521.66 893.04 526.00 C 893.06 543.01 893.07 560.02 893.00 577.03 C 893.02 578.29 893.01 579.66 893.70 580.80 L 893.63 581.49 C 895.41 583.95 897.44 586.49 900.49 587.39 C 910.75 589.96 922.87 588.39 930.56 580.60 C 938.66 571.98 940.81 559.55 940.20 548.13 C 939.73 538.78 936.94 529.35 931.26 521.82 C 926.03 514.95 917.56 510.83 908.96 510.72 C 903.98 510.73 898.65 510.50 894.18 513.02 Z" />
<path fill="#005c82" opacity="1.00" d=" M 1511.17 509.78 C 1509.91 508.88 1509.73 506.09 1511.78 506.15 C 1519.20 505.34 1526.59 506.94 1534.02 506.57 C 1539.53 506.55 1545.11 505.04 1550.58 506.39 C 1551.77 507.59 1551.33 509.93 1549.60 510.29 C 1546.00 511.47 1541.48 512.13 1539.57 515.86 C 1538.76 526.27 1539.19 536.75 1539.33 547.19 C 1545.83 548.31 1552.44 547.77 1559.00 547.89 C 1566.93 547.82 1574.87 548.06 1582.80 547.60 C 1582.80 537.36 1583.12 527.10 1582.53 516.88 C 1580.63 512.14 1575.00 511.58 1570.80 510.12 C 1570.83 509.30 1570.88 507.64 1570.91 506.81 C 1581.62 505.95 1592.37 507.52 1603.08 506.46 C 1605.86 506.19 1608.65 506.42 1611.46 506.63 C 1612.51 513.32 1600.82 510.11 1601.13 516.91 C 1600.80 537.94 1601.12 558.99 1600.97 580.03 C 1601.04 582.78 1600.59 586.08 1602.87 588.14 C 1605.70 590.84 1611.55 589.49 1612.49 594.11 C 1607.13 595.99 1601.44 594.52 1595.95 594.44 C 1590.63 594.41 1585.29 594.25 1580.00 594.85 C 1577.17 594.99 1574.24 595.35 1571.49 594.61 C 1570.42 593.60 1570.37 592.57 1571.34 591.52 C 1575.05 590.01 1579.68 589.48 1582.11 585.90 C 1583.40 583.15 1583.18 579.99 1583.32 577.04 C 1583.22 569.00 1583.46 560.95 1583.16 552.92 C 1570.09 552.40 1556.99 552.86 1543.91 552.67 C 1542.24 552.77 1538.96 552.30 1539.25 554.87 C 1539.13 563.59 1539.17 572.32 1539.23 581.04 C 1539.08 584.64 1542.09 587.40 1545.16 588.71 C 1547.34 589.69 1549.98 589.67 1551.90 591.22 C 1552.51 592.59 1551.59 594.24 1549.99 594.01 C 1542.99 594.68 1535.99 593.38 1528.98 593.67 C 1522.41 593.27 1515.91 594.98 1509.36 594.22 C 1508.98 589.80 1514.05 590.25 1516.92 588.80 C 1519.85 587.96 1521.26 584.88 1521.00 582.00 C 1521.02 561.34 1520.97 540.68 1521.02 520.03 C 1520.92 517.60 1521.08 514.66 1519.11 512.89 C 1516.73 511.22 1513.66 511.17 1511.17 509.78 Z" />
<path fill="#005c82" opacity="1.00" d=" M 401.35 525.44 C 403.43 524.01 406.84 524.63 407.81 527.15 C 410.45 532.68 409.11 539.03 409.43 544.94 C 409.05 553.33 410.40 561.95 408.27 570.17 C 407.71 573.76 402.37 574.26 400.36 571.71 C 398.87 569.11 398.63 566.03 398.42 563.11 C 397.95 553.40 397.69 543.64 398.35 533.93 C 398.64 530.96 398.97 527.54 401.35 525.44 Z" />
</g>
<g id="#002b49ff">
<path fill="#002b49" opacity="1.00" d=" M 587.67 17.81 C 588.21 15.50 587.69 11.77 591.01 11.61 C 593.86 12.65 594.47 16.47 597.34 17.51 C 600.12 18.40 603.07 18.54 605.97 18.55 C 620.66 18.50 635.34 18.53 650.03 18.53 C 654.35 18.50 658.79 18.85 662.99 17.58 C 666.42 16.62 668.75 13.62 672.13 12.52 C 674.73 18.80 669.64 24.67 670.05 31.03 C 669.68 33.53 670.89 37.16 668.01 38.51 C 665.02 37.43 665.14 33.56 663.76 31.12 C 662.45 26.91 657.95 24.97 653.88 24.66 C 648.64 24.31 643.31 24.17 638.13 25.20 C 637.00 27.31 635.93 29.54 636.04 32.01 C 635.39 51.33 635.90 70.67 635.71 90.00 C 635.92 93.31 635.39 97.48 638.37 99.74 C 641.58 102.14 645.63 102.87 649.40 103.94 C 649.41 104.74 649.42 106.33 649.43 107.13 C 644.33 107.67 639.19 107.59 634.10 107.17 C 627.47 106.67 620.82 107.25 614.20 107.08 C 610.86 106.04 606.79 107.07 603.93 105.03 C 603.99 104.54 604.11 103.56 604.18 103.08 C 607.93 101.00 612.89 101.38 616.04 98.13 C 618.00 95.89 617.72 92.72 617.80 89.95 C 617.65 70.72 617.94 51.48 617.65 32.25 C 617.26 29.38 617.74 24.70 613.95 24.13 C 607.31 23.54 599.47 22.50 593.98 27.17 C 590.41 29.92 588.86 34.64 584.95 36.97 C 582.17 37.89 581.77 34.28 582.66 32.48 C 584.56 27.68 587.06 23.02 587.67 17.81 Z" />
<path fill="#002b49" opacity="1.00" d=" M 1212.32 17.33 C 1214.67 16.23 1215.98 13.83 1218.03 12.31 C 1219.59 11.59 1219.51 14.25 1220.18 15.07 C 1227.52 38.04 1234.74 61.04 1242.30 83.93 C 1243.88 88.33 1244.61 93.45 1248.26 96.73 C 1251.49 99.87 1256.20 100.32 1260.17 102.12 C 1259.77 103.31 1260.25 105.24 1258.64 105.58 C 1250.43 106.34 1242.22 104.96 1234.01 105.22 C 1228.02 105.24 1222.04 106.11 1216.07 105.61 C 1214.29 105.62 1213.74 103.37 1215.20 102.40 C 1218.68 100.72 1223.31 101.28 1225.96 98.05 C 1228.04 95.30 1226.18 91.85 1225.68 88.90 C 1224.27 84.04 1223.62 78.96 1221.73 74.26 C 1217.64 73.07 1213.19 74.00 1208.96 73.73 C 1203.71 74.00 1198.34 73.14 1193.19 74.17 C 1191.40 78.62 1190.28 83.31 1188.68 87.83 C 1187.78 91.11 1186.24 95.29 1188.93 98.14 C 1192.04 101.02 1196.76 101.06 1199.86 104.04 C 1199.38 104.51 1198.43 105.47 1197.95 105.95 C 1193.67 106.60 1189.31 106.09 1185.01 106.22 C 1178.04 106.04 1170.98 106.95 1164.08 105.82 C 1162.15 105.35 1162.34 102.67 1163.77 101.77 C 1166.72 99.94 1170.41 99.45 1173.01 97.02 C 1176.25 94.24 1177.61 90.07 1179.26 86.27 C 1186.70 69.86 1193.00 52.96 1199.30 36.09 C 1201.20 30.82 1203.16 25.56 1204.43 20.09 C 1207.07 19.23 1209.77 18.49 1212.32 17.33 M 1196.94 66.15 C 1204.47 67.48 1212.24 66.54 1219.86 66.65 C 1219.63 64.36 1219.17 62.10 1218.44 59.92 C 1215.37 50.44 1212.67 40.84 1209.57 31.37 C 1204.90 42.78 1201.24 54.59 1196.94 66.15 Z" />
<path fill="#002b49" opacity="1.00" d=" M 1032.45 16.61 C 1043.49 14.39 1055.25 15.53 1065.42 20.48 C 1077.60 26.25 1087.31 37.66 1089.95 51.00 C 1092.55 65.44 1089.64 81.55 1079.49 92.59 C 1061.04 113.15 1024.65 112.20 1006.75 91.38 C 991.41 73.26 993.30 43.04 1011.06 27.19 C 1017.05 21.81 1024.55 18.15 1032.45 16.61 M 1035.51 22.69 C 1028.72 24.04 1023.56 29.42 1020.53 35.40 C 1015.71 44.73 1015.76 55.67 1016.79 65.86 C 1018.20 77.25 1022.10 89.20 1031.26 96.71 C 1037.12 101.65 1045.44 102.16 1052.64 100.54 C 1059.37 98.86 1064.29 93.28 1067.19 87.22 C 1071.36 78.79 1071.34 69.07 1070.78 59.90 C 1069.75 48.43 1066.31 36.45 1057.74 28.29 C 1052.11 22.41 1043.21 20.89 1035.51 22.69 Z" />
<path fill="#002b49" opacity="1.00" d=" M 785.42 20.61 C 784.32 19.68 784.41 17.56 786.08 17.42 C 794.70 16.85 803.35 17.73 811.99 17.53 C 823.68 17.33 835.41 18.04 847.07 16.88 C 848.85 16.56 850.25 18.15 850.17 19.85 C 850.79 25.23 852.09 30.57 852.02 35.99 C 852.56 37.89 848.82 38.06 848.53 36.45 C 846.67 32.78 846.10 28.08 842.40 25.66 C 837.50 21.57 830.82 23.38 825.02 22.97 C 821.70 22.91 816.99 22.67 815.68 26.52 C 815.15 34.31 815.66 42.16 815.45 49.98 C 815.58 52.50 814.96 55.33 816.50 57.55 C 819.92 58.44 823.54 57.86 827.05 58.03 C 830.08 57.91 833.81 58.61 835.99 55.92 C 838.03 53.16 838.64 49.57 841.04 47.01 C 842.05 48.09 843.38 49.27 842.92 50.96 C 841.98 59.36 842.91 67.81 842.21 76.22 C 837.66 75.52 838.14 70.17 836.14 67.04 C 834.35 63.15 829.47 64.17 826.03 63.96 C 822.53 64.24 818.52 63.24 815.43 65.25 C 814.41 71.40 815.29 77.78 815.00 84.02 C 815.29 88.63 814.14 93.60 816.12 97.95 C 817.51 100.91 821.21 100.98 824.03 101.01 C 830.63 100.88 837.65 101.79 843.80 98.80 C 848.79 96.41 850.71 90.84 853.72 86.59 C 854.49 85.28 857.07 84.77 856.94 86.99 C 857.14 93.19 854.66 99.08 852.96 104.94 C 852.74 106.93 850.55 107.01 849.02 107.01 C 832.33 107.06 815.63 106.89 798.94 107.08 C 794.57 107.49 790.30 106.27 785.98 105.93 C 784.16 106.28 783.86 103.06 785.51 102.63 C 788.56 101.21 792.21 101.03 794.86 98.80 C 797.10 96.48 796.84 93.00 797.00 90.03 C 796.99 71.38 797.01 52.72 796.99 34.07 C 796.72 30.98 797.29 27.33 795.05 24.83 C 792.32 22.49 788.43 22.45 785.42 20.61 Z" />
<path fill="#002b49" opacity="1.00" d=" M 898.39 17.45 C 907.26 16.64 916.23 18.39 925.08 16.93 C 936.27 16.29 948.60 15.39 958.51 21.61 C 969.05 28.23 969.94 44.82 961.43 53.41 C 958.28 56.82 954.07 58.95 949.83 60.67 C 957.95 73.07 966.14 85.83 977.70 95.35 C 982.46 99.35 988.96 98.80 994.73 99.52 C 996.86 100.79 995.68 103.95 994.28 105.35 C 991.42 107.61 987.62 108.09 984.11 108.52 C 975.27 109.49 965.59 107.37 959.48 100.51 C 952.02 91.05 944.83 81.25 939.55 70.36 C 937.86 66.59 934.04 64.14 929.97 63.82 C 928.40 63.31 926.43 64.04 926.78 65.99 C 926.64 74.65 926.76 83.31 926.73 91.97 C 926.51 96.00 928.97 100.12 933.07 101.02 C 935.54 102.02 940.03 101.45 939.75 105.28 C 936.71 106.72 933.26 106.22 930.03 106.18 C 921.35 105.45 912.61 105.56 903.93 106.35 C 901.38 106.38 898.64 107.03 896.23 105.95 C 895.18 102.10 900.47 101.80 902.98 100.75 C 906.62 100.11 909.25 96.83 908.95 93.11 C 909.08 72.73 908.94 52.34 909.02 31.95 C 908.87 29.51 909.16 26.62 907.23 24.76 C 905.03 22.24 901.35 22.54 898.48 21.39 C 896.90 20.69 895.90 17.44 898.39 17.45 M 930.35 22.42 C 927.18 23.43 927.11 27.32 926.83 30.04 C 926.56 37.71 926.82 45.38 926.70 53.05 C 926.81 55.13 926.36 58.24 928.87 59.10 C 936.04 61.43 944.47 57.21 947.41 50.36 C 949.62 45.53 949.70 40.01 948.82 34.86 C 948.02 31.08 946.55 27.02 943.16 24.82 C 939.46 22.40 934.67 21.36 930.35 22.42 Z" />
<path fill="#002b49" opacity="1.00" d=" M 1091.93 17.97 C 1095.11 16.66 1098.69 17.36 1102.05 17.38 C 1110.34 18.32 1118.73 18.22 1127.03 17.27 C 1129.45 17.42 1133.01 16.43 1134.41 19.07 C 1133.15 21.94 1129.32 21.73 1126.84 22.94 C 1124.08 23.68 1122.88 27.05 1124.56 29.39 C 1130.15 39.04 1135.18 49.05 1141.23 58.43 C 1145.06 54.96 1147.04 50.05 1149.54 45.64 C 1152.18 40.07 1155.70 34.87 1157.51 28.94 C 1158.57 26.22 1156.72 23.10 1153.92 22.55 C 1150.94 21.90 1147.49 21.75 1145.77 18.79 C 1150.00 15.87 1155.34 17.73 1160.07 17.87 C 1166.37 18.66 1172.61 16.81 1178.90 17.33 C 1180.54 17.36 1182.20 19.08 1180.81 20.59 C 1176.28 22.57 1171.19 23.92 1167.90 27.91 C 1162.35 34.34 1159.15 42.38 1154.29 49.30 C 1150.36 56.10 1144.36 62.61 1144.70 70.97 C 1144.88 78.65 1144.43 86.35 1144.92 94.01 C 1145.42 98.60 1149.97 101.01 1154.00 102.01 C 1155.60 102.68 1157.82 102.67 1158.81 104.30 C 1159.02 106.97 1155.73 106.50 1153.99 106.57 C 1145.70 106.06 1137.41 105.31 1129.10 105.86 C 1123.83 106.13 1118.55 106.91 1113.29 106.22 C 1113.29 105.43 1113.28 103.85 1113.28 103.07 C 1117.18 101.44 1122.01 101.37 1124.96 97.97 C 1127.44 95.28 1127.31 91.41 1127.30 88.00 C 1127.20 82.34 1127.35 76.68 1127.25 71.03 C 1127.04 64.40 1123.09 58.77 1119.63 53.39 C 1114.78 45.90 1110.06 38.33 1105.13 30.89 C 1102.68 27.49 1100.02 23.79 1095.94 22.29 C 1094.04 21.53 1091.16 20.68 1091.93 17.97 Z" />
<path fill="#002b49" opacity="1.00" d=" M 1265.51 17.73 C 1273.29 16.58 1281.16 17.79 1288.99 17.54 C 1294.99 17.73 1300.99 16.99 1307.00 17.35 C 1308.28 17.34 1308.53 19.05 1309.36 19.77 C 1305.41 22.47 1300.16 22.34 1296.42 25.40 C 1294.85 27.21 1295.07 29.80 1294.98 32.03 C 1295.05 52.03 1294.94 72.04 1295.02 92.04 C 1294.95 94.78 1295.86 98.33 1299.02 98.89 C 1304.96 99.73 1311.02 99.07 1317.02 99.29 C 1325.25 99.66 1331.62 92.61 1334.55 85.58 C 1335.65 83.60 1336.23 80.38 1339.07 80.40 C 1341.29 83.72 1339.11 87.82 1338.51 91.35 C 1336.97 95.94 1337.23 101.01 1335.45 105.48 C 1316.33 106.13 1297.14 105.44 1278.00 105.81 C 1274.08 105.96 1270.08 106.76 1266.20 105.89 C 1264.44 104.77 1265.25 102.47 1267.16 102.19 C 1271.40 100.88 1277.48 99.60 1277.65 94.05 C 1277.96 74.05 1277.65 54.03 1277.80 34.02 C 1277.68 30.96 1278.08 27.49 1276.10 24.90 C 1273.39 22.34 1269.23 22.73 1266.18 20.87 C 1266.02 20.08 1265.68 18.51 1265.51 17.73 Z" />
<path fill="#002b49" opacity="1.00" d=" M 676.48 17.89 C 683.66 16.96 690.86 18.22 698.06 18.02 C 704.50 18.31 710.93 16.93 717.35 17.92 C 717.19 19.32 717.96 21.74 715.87 21.99 C 712.00 23.27 706.20 24.05 705.63 29.06 C 705.26 38.89 705.55 48.75 705.51 58.59 C 718.33 59.01 731.17 58.62 743.99 58.81 C 745.57 58.61 747.61 59.29 748.81 57.88 C 749.30 50.59 748.83 43.27 749.02 35.97 C 748.87 32.77 749.53 29.12 747.48 26.38 C 745.04 23.62 741.11 23.42 737.92 22.06 C 736.33 21.38 736.44 18.64 738.21 18.30 C 745.76 17.22 753.36 18.87 760.94 18.55 C 766.25 18.71 771.57 17.39 776.86 18.25 C 778.19 18.63 778.39 20.51 777.34 21.29 C 774.82 23.45 771.02 23.24 768.57 25.50 C 766.86 27.97 767.22 31.17 767.01 34.01 C 766.98 51.35 767.02 68.70 766.99 86.04 C 767.04 89.84 766.78 93.71 767.65 97.44 C 768.88 101.25 773.41 101.45 776.56 102.76 C 778.22 103.08 778.68 104.65 777.92 106.08 C 774.40 107.17 770.67 106.67 767.07 106.45 C 758.71 105.94 750.33 106.23 741.98 106.76 C 739.86 106.96 735.64 106.46 737.35 103.39 C 741.95 101.35 749.58 100.39 749.11 93.70 L 749.40 92.81 C 749.61 92.65 750.04 92.31 750.26 92.15 C 749.41 82.95 750.41 73.70 749.64 64.50 C 736.79 63.54 723.87 64.34 710.99 64.04 C 709.06 64.21 705.97 63.57 705.28 66.03 C 704.77 70.67 705.16 75.35 705.07 80.00 C 705.31 85.04 704.39 90.23 705.79 95.15 C 707.66 99.62 712.68 100.90 716.91 102.00 C 718.65 102.18 719.18 105.57 716.94 105.56 C 708.26 106.40 699.58 104.66 690.90 105.33 C 686.26 105.41 681.64 106.71 677.01 106.06 C 675.54 105.52 675.21 104.53 676.01 103.07 C 678.89 101.33 682.58 101.32 685.26 99.17 C 687.36 97.43 687.20 94.43 687.30 91.96 C 687.25 73.61 687.27 55.27 687.28 36.92 C 687.19 33.38 687.65 29.72 686.56 26.29 C 684.67 21.52 675.59 24.23 676.48 17.89 Z" />
<path fill="#002b49" opacity="1.00" d=" M 622.01 179.83 C 635.45 176.59 649.75 177.70 662.71 182.40 C 663.85 182.94 665.34 183.57 665.59 184.98 C 666.93 191.33 666.84 197.86 667.06 204.32 C 665.54 204.46 663.23 205.34 662.43 203.50 C 660.31 198.81 659.55 193.19 655.36 189.72 C 649.45 184.92 641.48 183.46 634.04 183.75 C 623.57 184.14 613.99 190.82 609.13 199.96 C 603.00 210.07 602.26 222.49 604.67 233.85 C 606.29 242.27 610.00 250.59 616.50 256.37 C 624.97 263.74 637.52 265.30 647.93 261.59 C 654.52 259.15 659.07 253.33 662.26 247.31 C 663.13 245.46 665.01 243.27 667.23 244.66 C 668.69 246.45 667.76 248.90 667.49 250.95 C 666.42 255.22 665.69 259.68 663.68 263.65 C 661.59 266.00 658.33 266.67 655.47 267.57 C 641.54 271.27 626.25 271.68 612.70 266.28 C 600.39 261.61 589.90 251.57 585.83 238.92 C 581.70 226.84 583.14 212.86 590.11 202.10 C 597.33 190.91 609.11 182.94 622.01 179.83 Z" />
<path fill="#002b49" opacity="1.00" d=" M 1059.60 178.83 C 1066.02 177.73 1072.60 177.70 1079.00 178.96 C 1085.62 180.16 1092.85 180.64 1098.65 184.29 C 1100.19 190.05 1100.85 196.12 1100.82 202.08 C 1101.05 204.18 1098.68 205.16 1097.04 204.19 C 1094.44 201.15 1093.40 197.13 1090.96 193.98 C 1086.28 187.44 1077.66 185.15 1069.97 185.43 C 1061.27 185.27 1052.89 189.87 1047.77 196.81 C 1041.20 205.30 1039.09 216.42 1039.77 226.95 C 1040.41 235.83 1042.05 245.19 1047.72 252.37 C 1052.44 258.77 1059.72 263.98 1067.98 263.81 C 1073.91 264.40 1080.98 262.10 1083.25 256.08 C 1084.88 251.26 1084.65 246.05 1084.40 241.04 C 1084.64 237.38 1080.77 235.81 1077.94 234.81 C 1075.41 233.81 1072.55 234.04 1070.13 232.83 C 1068.17 232.17 1068.84 228.80 1070.94 229.08 C 1080.31 228.56 1089.70 229.97 1099.05 228.86 C 1101.99 228.75 1105.07 228.01 1107.94 228.98 C 1109.86 233.38 1103.60 233.33 1101.30 235.28 C 1098.79 238.17 1098.91 242.34 1098.34 245.94 C 1098.29 249.45 1097.44 253.39 1099.51 256.52 C 1100.19 257.92 1101.63 259.74 1100.35 261.24 C 1090.72 266.36 1080.23 271.24 1069.04 270.47 C 1058.43 270.51 1047.49 268.39 1038.56 262.41 C 1029.10 256.12 1021.72 246.32 1019.46 235.07 C 1016.34 219.91 1021.13 203.13 1032.45 192.43 C 1039.76 185.15 1049.49 180.59 1059.60 178.83 Z" />
<path fill="#002b49" opacity="1.00" d=" M 718.02 179.13 C 730.29 177.17 743.31 179.41 753.80 186.21 C 764.46 192.91 772.24 204.32 773.78 216.90 C 775.67 231.02 771.88 246.43 761.67 256.71 C 753.28 265.51 741.11 270.16 729.05 270.25 C 713.84 271.12 697.91 264.69 688.64 252.40 C 677.22 237.42 677.06 215.60 686.47 199.60 C 693.21 188.48 705.19 180.94 718.02 179.13 M 720.17 185.27 C 713.18 186.05 707.51 191.06 704.16 197.00 C 699.02 205.70 698.83 216.23 699.43 226.03 C 700.36 236.61 703.21 247.53 710.24 255.76 C 718.56 266.45 737.07 267.53 745.80 256.80 C 753.31 248.12 754.56 236.00 753.85 224.99 C 753.08 212.39 749.48 198.94 739.69 190.31 C 734.54 185.42 726.97 184.26 720.17 185.27 Z" />
<path fill="#002b49" opacity="1.00" d=" M 1272.60 179.83 C 1282.01 178.25 1291.95 178.56 1300.92 182.08 C 1312.53 186.30 1322.37 195.35 1327.23 206.74 C 1334.02 224.03 1330.22 245.57 1316.55 258.51 C 1303.73 270.64 1284.00 273.53 1267.50 268.39 C 1257.12 265.10 1247.55 258.34 1242.21 248.70 C 1234.49 235.94 1234.22 219.50 1239.81 205.88 C 1245.22 192.25 1258.27 182.35 1272.60 179.83 M 1272.50 186.63 C 1263.69 189.72 1258.58 198.77 1256.57 207.42 C 1254.31 219.96 1255.32 233.21 1259.89 245.15 C 1262.26 250.91 1265.76 256.43 1270.73 260.30 C 1277.93 265.70 1288.22 266.13 1296.17 262.15 C 1303.79 257.69 1308.10 249.05 1309.48 240.56 C 1311.16 229.17 1310.15 217.34 1306.36 206.45 C 1304.10 199.86 1299.96 193.94 1294.53 189.58 C 1288.34 184.82 1279.74 184.49 1272.50 186.63 Z" />
<path fill="#002b49" opacity="1.00" d=" M 1395.92 179.83 C 1398.60 179.33 1401.39 179.15 1404.07 179.88 C 1404.56 186.53 1404.71 193.23 1404.29 199.88 C 1404.70 202.00 1400.94 201.54 1400.98 199.88 C 1399.54 194.85 1397.64 188.82 1392.15 186.98 C 1386.19 185.56 1379.97 186.42 1373.92 186.27 C 1370.24 185.87 1367.74 189.58 1368.00 192.94 C 1368.07 201.60 1367.82 210.28 1368.12 218.93 C 1368.35 219.16 1368.79 219.61 1369.02 219.83 C 1374.67 220.14 1380.36 220.11 1386.03 219.87 C 1390.95 219.30 1391.16 212.62 1395.06 210.97 C 1395.42 211.25 1396.14 211.80 1396.51 212.08 C 1396.94 215.70 1396.03 219.33 1396.19 222.97 C 1396.02 227.43 1397.22 231.90 1396.27 236.33 C 1391.02 235.22 1392.05 227.74 1387.01 226.50 C 1381.36 225.96 1375.64 226.21 1369.98 226.33 C 1366.97 226.26 1366.90 229.78 1366.98 231.96 C 1367.17 240.35 1366.63 248.78 1367.30 257.16 C 1367.88 262.32 1373.76 263.74 1377.94 264.93 C 1379.82 265.09 1381.43 267.03 1380.01 268.75 C 1373.38 270.01 1366.67 268.37 1359.99 268.71 C 1353.33 268.42 1346.71 269.34 1340.08 269.45 C 1338.16 269.92 1336.86 267.67 1338.29 266.34 C 1341.08 263.99 1345.23 264.23 1348.05 261.89 C 1350.16 259.87 1350.21 256.74 1350.29 254.02 C 1350.24 234.70 1350.29 215.38 1350.27 196.06 C 1350.14 192.92 1349.89 189.10 1347.00 187.18 C 1344.26 185.69 1341.12 185.16 1338.31 183.83 C 1338.30 183.10 1338.27 181.64 1338.25 180.91 C 1347.47 179.73 1356.72 181.34 1365.96 181.00 C 1375.94 180.77 1386.04 181.73 1395.92 179.83 Z" />
<path fill="#002b49" opacity="1.00" d=" M 782.35 180.55 C 785.52 179.63 788.89 180.03 792.16 180.16 C 798.09 180.63 804.06 180.57 810.02 180.51 C 814.55 180.47 819.17 179.33 823.65 180.50 C 825.42 181.36 824.51 183.70 822.90 184.04 C 819.53 185.25 815.84 185.81 812.82 187.83 C 810.58 189.45 810.96 192.59 810.73 195.02 C 810.73 214.35 810.71 233.68 810.74 253.00 C 810.96 255.88 810.63 259.63 813.55 261.30 C 817.14 262.77 821.16 262.15 824.95 262.28 C 829.67 262.08 834.65 262.96 839.15 261.11 C 844.84 258.27 848.84 252.85 851.04 246.98 C 851.72 245.36 853.63 241.85 855.51 244.23 C 856.75 248.19 854.55 252.08 853.92 255.96 C 852.68 260.05 852.82 264.49 851.29 268.47 C 832.24 269.11 813.12 268.51 794.04 268.76 C 790.06 268.84 785.99 269.85 782.09 268.74 C 780.20 268.36 780.85 265.83 782.34 265.38 C 785.53 263.95 789.53 263.81 791.93 260.96 C 793.66 259.10 793.49 256.38 793.55 254.02 C 793.42 233.37 793.67 212.72 793.43 192.07 C 793.75 186.37 787.38 185.68 783.32 184.46 C 781.46 184.33 780.64 181.51 782.35 180.55 Z" />
<path fill="#002b49" opacity="1.00" d=" M 862.36 180.41 C 865.54 179.65 868.86 180.04 872.09 180.19 C 877.72 180.63 883.36 180.54 889.01 180.53 C 893.83 180.54 898.75 179.27 903.52 180.54 C 905.54 182.36 903.11 184.44 901.13 184.51 C 897.14 185.90 890.57 186.49 890.52 191.99 C 890.39 212.66 890.54 233.35 890.45 254.03 C 890.41 256.74 890.61 260.36 893.57 261.52 C 897.58 262.76 901.86 262.13 905.99 262.28 C 910.53 262.14 915.46 262.95 919.60 260.62 C 925.03 257.69 928.59 252.32 930.77 246.69 C 931.46 245.19 932.97 242.28 934.95 243.90 C 936.47 248.11 933.95 252.41 933.37 256.59 C 932.06 260.47 932.71 264.98 930.61 268.54 C 911.41 269.03 892.17 268.51 872.96 268.79 C 869.06 268.97 865.05 269.79 861.23 268.65 C 860.04 267.73 860.67 265.51 862.19 265.29 C 865.79 263.78 870.62 263.48 872.46 259.45 C 873.47 256.43 872.86 253.14 873.01 250.00 C 872.98 231.00 873.01 212.01 873.00 193.01 C 873.13 190.14 872.00 186.75 868.79 186.23 C 866.14 184.84 860.25 185.44 861.13 181.07 C 861.44 180.91 862.06 180.58 862.36 180.41 Z" />
<path fill="#002b49" opacity="1.00" d=" M 940.86 180.41 C 944.26 180.08 947.68 179.87 951.10 180.05 C 964.06 180.92 977.06 180.36 990.05 180.54 C 994.70 180.69 999.32 179.78 1003.97 179.88 C 1005.96 180.05 1005.84 182.44 1006.19 183.88 C 1006.88 189.34 1008.00 194.77 1007.96 200.30 C 1003.75 201.31 1003.40 196.59 1002.12 193.85 C 1000.49 188.81 995.09 185.78 989.99 185.75 C 985.66 185.72 981.32 185.56 977.01 185.86 C 974.26 185.95 971.22 187.89 971.31 190.91 C 971.11 199.28 971.28 207.67 971.22 216.06 C 971.19 217.86 971.50 220.91 973.92 220.89 C 979.04 220.97 984.28 221.44 989.35 220.54 C 993.98 218.96 993.32 212.87 996.90 210.26 C 999.33 211.13 998.67 213.88 998.57 215.83 C 997.70 223.61 998.76 231.45 997.90 239.23 C 992.14 237.78 994.46 229.20 989.01 227.30 C 983.06 226.89 976.88 226.40 971.05 227.88 C 970.98 237.61 970.96 247.35 971.03 257.08 C 970.85 260.08 972.83 263.35 976.03 263.63 C 980.68 263.96 985.36 263.73 990.03 263.77 C 995.60 263.80 1001.78 262.04 1004.86 257.02 C 1007.43 254.06 1008.07 249.10 1012.37 248.04 C 1013.80 253.74 1011.15 259.37 1009.75 264.82 C 1009.01 266.74 1008.86 270.06 1006.09 269.95 C 989.07 270.11 972.03 269.89 955.01 270.05 C 950.65 270.28 946.35 269.36 942.04 268.89 C 940.38 269.05 939.44 266.64 940.93 265.80 C 944.04 264.11 947.93 264.05 950.71 261.69 C 952.69 259.68 952.72 256.64 952.79 254.00 C 952.75 234.32 952.77 214.64 952.78 194.96 C 952.63 192.41 952.74 189.33 950.64 187.50 C 948.11 185.62 944.86 185.29 942.06 184.01 C 940.36 183.61 941.00 181.63 940.86 180.41 Z" />
<path fill="#002b49" opacity="1.00" d=" M 1115.94 182.93 C 1115.25 179.40 1119.78 180.23 1121.96 179.98 C 1136.97 180.74 1152.00 180.50 1167.03 180.52 C 1171.02 180.57 1174.98 179.80 1178.98 179.85 C 1180.65 179.67 1181.35 181.51 1181.45 182.87 C 1182.23 188.69 1183.43 194.51 1183.28 200.41 C 1182.50 200.28 1180.94 200.01 1180.16 199.88 C 1177.86 196.15 1177.54 191.04 1173.56 188.51 C 1168.25 184.36 1161.16 186.05 1154.96 185.72 C 1151.59 185.56 1146.47 186.67 1146.77 191.02 C 1146.65 199.35 1146.76 207.68 1146.72 216.01 C 1146.83 217.72 1146.61 220.74 1149.00 220.83 C 1153.99 221.12 1159.05 221.25 1164.03 220.71 C 1169.15 219.77 1168.67 213.34 1172.02 210.48 C 1173.78 210.42 1174.56 212.44 1174.17 213.93 C 1173.23 221.85 1174.11 229.85 1173.57 237.78 C 1173.60 239.36 1171.57 238.68 1170.83 238.16 C 1168.91 235.19 1168.69 231.37 1166.45 228.57 C 1163.64 226.00 1159.48 227.30 1156.06 226.97 C 1152.95 227.28 1149.08 226.12 1146.55 228.37 C 1145.77 236.86 1146.47 245.48 1146.21 254.02 C 1146.11 257.45 1146.49 262.27 1150.43 263.44 C 1153.58 264.07 1156.84 263.69 1160.05 263.78 C 1165.47 263.81 1171.34 264.14 1176.15 261.15 C 1180.49 258.27 1182.29 253.14 1185.22 249.07 C 1185.97 248.90 1187.47 248.56 1188.23 248.39 C 1188.48 255.69 1185.97 262.73 1183.45 269.46 C 1178.09 270.66 1172.48 269.70 1167.02 270.00 C 1155.35 270.02 1143.69 269.96 1132.02 270.03 C 1126.75 270.33 1121.50 269.49 1116.33 268.61 C 1113.90 265.23 1119.66 264.72 1121.81 263.85 C 1125.66 263.19 1128.37 259.84 1128.12 255.91 C 1128.46 236.29 1128.18 216.65 1128.26 197.02 C 1127.94 193.91 1128.58 190.17 1126.31 187.67 C 1123.30 185.21 1118.96 185.39 1115.94 182.93 Z" />
<path fill="#002b49" opacity="1.00" d=" M 612.49 347.56 C 620.14 346.45 627.93 348.08 635.01 350.99 C 637.67 352.25 637.68 355.63 638.31 358.10 C 638.93 362.26 639.83 366.61 638.84 370.78 C 637.14 371.39 634.29 371.80 633.48 369.71 C 631.62 364.86 629.78 359.71 625.67 356.27 C 621.61 352.56 615.56 352.28 610.48 353.63 C 602.73 355.73 600.49 366.95 605.72 372.56 C 614.04 381.57 626.42 385.34 634.92 394.12 C 644.10 403.48 643.86 419.79 635.70 429.67 C 629.69 435.53 621.62 439.81 613.08 439.95 C 604.65 440.29 595.81 438.18 589.13 432.86 C 586.98 431.29 586.54 428.52 586.13 426.09 C 585.42 421.52 584.97 416.87 585.38 412.26 C 585.48 410.56 587.87 411.06 589.02 411.02 C 590.39 411.83 590.61 413.55 591.23 414.88 C 593.59 421.75 597.62 428.48 604.04 432.22 C 609.80 435.57 618.06 434.92 622.43 429.61 C 626.84 423.55 627.01 413.99 621.34 408.65 C 616.96 403.68 610.58 401.34 605.16 397.78 C 599.05 394.18 593.02 389.80 589.58 383.45 C 585.29 374.39 586.97 362.41 594.58 355.61 C 599.47 351.04 605.87 348.33 612.49 347.56 Z" />
<path fill="#002b49" opacity="1.00" d=" M 900.44 347.59 C 905.29 347.10 910.22 347.03 915.05 347.84 C 921.94 348.97 929.08 349.68 935.49 352.66 C 937.29 353.34 936.99 355.64 937.47 357.17 C 938.16 362.29 939.29 367.50 938.49 372.66 C 937.44 374.42 934.60 373.87 933.88 372.04 C 931.37 367.48 929.41 362.27 924.98 359.16 C 914.21 352.03 898.41 352.96 889.13 362.19 C 880.27 370.48 877.00 383.19 877.57 395.00 C 878.24 403.50 879.38 412.44 884.32 419.65 C 888.47 425.85 894.56 431.42 902.15 432.68 C 907.88 433.56 914.50 433.21 918.89 428.95 C 923.28 424.07 922.14 417.06 922.29 411.04 C 922.96 404.97 915.40 403.78 910.94 402.88 C 908.40 403.05 904.98 400.16 908.14 398.23 C 915.42 397.30 922.71 398.85 930.00 398.53 C 934.98 398.45 939.95 397.35 944.93 397.92 C 946.82 398.16 946.71 401.51 944.88 401.92 C 942.31 403.18 938.60 403.48 937.79 406.77 C 936.17 412.03 935.99 417.64 936.31 423.10 C 936.57 425.61 939.70 427.68 938.43 430.31 C 929.84 434.69 920.82 439.34 910.96 439.64 C 904.64 439.51 898.22 439.69 892.05 438.09 C 878.35 435.11 865.82 425.73 860.17 412.75 C 854.81 400.87 855.41 386.68 860.86 374.94 C 867.86 359.55 883.82 349.32 900.44 347.59 Z" />
<path fill="#002b49" opacity="1.00" d=" M 1253.09 355.12 C 1264.21 345.29 1281.55 345.14 1294.23 351.83 C 1297.16 357.69 1297.10 364.67 1296.91 371.11 C 1295.14 371.02 1293.19 371.52 1291.65 370.45 C 1289.66 365.16 1287.72 359.44 1283.09 355.83 C 1279.05 352.46 1273.34 352.42 1268.48 353.59 C 1260.49 355.74 1258.33 367.49 1264.07 373.00 C 1270.47 379.61 1278.96 383.51 1286.43 388.68 C 1292.12 392.59 1297.22 398.07 1298.94 404.92 C 1300.44 413.36 1299.49 422.96 1293.66 429.67 C 1281.71 442.05 1260.59 443.42 1246.92 433.10 C 1244.40 431.39 1243.96 428.22 1243.52 425.47 C 1242.87 420.98 1242.47 416.43 1242.88 411.90 C 1243.91 410.85 1245.59 411.13 1246.94 410.73 C 1249.76 417.55 1252.28 424.94 1258.18 429.81 C 1263.79 435.17 1273.72 436.10 1279.35 430.29 C 1284.47 424.24 1284.66 413.92 1278.62 408.40 C 1270.78 400.55 1259.33 397.47 1251.80 389.20 C 1242.33 380.36 1243.20 363.30 1253.09 355.12 Z" />
<path fill="#002b49" opacity="1.00" d=" M 1068.49 348.58 C 1080.22 346.50 1092.74 347.87 1103.22 353.78 C 1114.85 360.07 1123.68 371.72 1125.69 384.88 C 1127.74 398.62 1124.69 413.67 1115.29 424.23 C 1097.36 444.79 1061.65 444.48 1043.28 424.66 C 1026.45 406.46 1028.40 374.29 1047.49 358.39 C 1053.44 353.33 1060.80 349.95 1068.49 348.58 M 1071.53 354.63 C 1065.41 355.73 1060.34 359.99 1057.24 365.24 C 1051.45 374.33 1051.22 385.60 1052.01 396.00 C 1053.08 407.28 1056.52 419.02 1064.79 427.19 C 1073.95 436.31 1091.32 435.72 1099.06 425.05 C 1106.16 416.08 1107.10 404.01 1106.27 393.02 C 1105.31 380.87 1101.81 367.95 1092.31 359.64 C 1086.88 354.33 1078.71 353.36 1071.53 354.63 Z" />
<path fill="#002b49" opacity="1.00" d=" M 1129.80 349.11 C 1133.35 347.61 1137.24 347.99 1141.01 347.99 C 1147.34 348.01 1153.69 348.01 1160.03 347.99 C 1175.61 365.26 1190.04 383.53 1205.33 401.05 C 1208.89 404.80 1211.87 409.16 1216.08 412.26 C 1217.10 396.86 1216.22 381.38 1216.55 365.95 C 1216.37 362.55 1217.31 358.19 1214.19 355.81 C 1211.02 352.99 1206.47 352.95 1202.95 350.88 C 1201.54 348.94 1204.46 347.94 1205.90 348.07 C 1214.28 347.85 1222.67 348.10 1231.05 347.97 C 1232.95 348.11 1235.82 347.47 1236.49 349.94 C 1234.29 354.62 1226.64 352.32 1224.42 357.32 C 1223.03 362.42 1223.99 367.82 1223.73 373.05 C 1224.22 392.70 1221.48 412.41 1224.03 432.00 C 1224.37 434.78 1223.85 437.56 1223.58 440.32 C 1217.63 440.29 1212.84 436.15 1209.15 431.90 C 1196.29 417.78 1183.52 403.58 1170.55 389.56 C 1165.13 383.76 1160.24 377.45 1154.37 372.08 C 1153.64 373.98 1153.10 375.97 1153.21 378.03 C 1153.25 392.03 1153.23 406.03 1153.22 420.03 C 1153.25 423.71 1153.38 427.99 1156.41 430.59 C 1159.50 433.53 1164.07 433.40 1167.70 435.25 C 1168.51 436.57 1167.72 438.28 1166.06 437.98 C 1158.38 438.76 1150.64 437.56 1142.95 438.07 C 1139.50 437.98 1135.19 439.37 1132.81 436.07 C 1136.62 433.15 1142.65 432.37 1143.82 426.89 C 1146.85 412.16 1146.47 396.98 1147.24 382.03 C 1147.16 376.31 1147.62 370.56 1146.95 364.87 C 1146.26 359.80 1141.63 356.64 1137.25 354.85 C 1134.29 353.65 1130.43 352.79 1129.80 349.11 Z" />
<path fill="#002b49" opacity="1.00" d=" M 655.96 349.20 C 658.72 347.87 661.98 348.66 664.95 348.64 C 673.98 349.61 683.07 349.11 692.13 349.32 C 694.05 349.16 695.61 351.07 693.96 352.66 C 691.14 354.22 687.63 354.82 685.59 357.51 C 683.74 359.51 683.39 362.33 683.45 364.95 C 683.52 377.96 683.44 390.98 683.48 403.99 C 683.82 412.04 686.51 420.87 693.43 425.68 C 704.17 432.76 721.41 430.85 728.06 419.05 C 732.13 412.13 732.79 403.85 732.78 396.00 C 732.70 387.07 732.88 378.13 732.70 369.21 C 732.33 365.10 732.11 360.71 729.86 357.13 C 727.93 354.01 723.96 353.66 721.02 351.97 C 720.34 348.94 724.05 348.91 726.09 348.81 C 733.40 348.70 740.72 348.79 748.04 348.77 C 749.86 348.93 752.83 348.45 753.11 351.01 C 751.29 353.85 747.39 353.75 744.92 355.78 C 741.85 358.16 741.60 362.38 741.24 365.94 C 740.61 379.30 740.27 392.69 739.86 406.06 C 738.97 422.85 724.72 437.85 707.94 439.34 C 697.32 440.15 685.84 438.36 677.39 431.43 C 669.55 425.18 666.23 414.81 666.04 405.08 C 665.87 390.70 666.15 376.31 665.92 361.93 C 665.84 357.76 662.84 354.15 658.84 353.11 C 657.32 352.65 653.56 350.92 655.96 349.20 Z" />
<path fill="#002b49" opacity="1.00" d=" M 781.92 349.75 C 791.89 348.77 802.23 348.13 811.96 351.04 C 818.93 353.08 825.31 358.60 826.64 366.00 C 827.73 372.13 827.06 379.00 823.04 384.00 C 819.78 388.48 814.77 391.17 809.77 393.26 C 818.16 405.63 826.24 418.63 838.02 428.11 C 842.98 432.20 849.77 430.89 855.54 432.43 C 856.45 434.88 855.20 437.85 852.78 438.87 C 847.58 441.42 841.55 440.81 835.96 440.53 C 828.75 440.06 822.02 436.19 817.69 430.46 C 811.56 421.80 804.53 413.64 800.11 403.91 C 798.54 400.20 795.32 397.12 791.24 396.54 C 789.77 396.22 786.73 395.59 786.84 397.97 C 786.56 406.64 786.80 415.33 786.72 424.01 C 786.53 427.68 788.18 431.75 791.84 433.09 C 794.79 434.47 799.97 433.61 799.79 438.21 C 795.58 438.92 791.29 438.86 787.06 438.47 C 778.38 437.81 769.67 438.39 761.01 439.00 C 759.15 438.97 756.18 439.64 755.86 437.03 C 758.39 432.90 764.54 434.32 767.49 430.65 C 768.89 428.74 768.96 426.28 769.02 424.01 C 768.99 404.00 769.00 384.00 769.01 363.99 C 768.95 361.54 768.97 358.72 766.94 356.97 C 764.24 353.94 758.72 355.82 756.79 351.93 C 756.80 350.49 757.52 349.79 758.93 349.83 C 766.60 349.14 774.28 351.00 781.92 349.75 M 790.39 354.45 C 786.97 355.78 787.03 360.01 786.77 363.07 C 786.67 371.04 786.73 379.01 786.74 386.98 C 786.55 388.86 787.41 390.98 789.44 391.41 C 796.30 393.10 804.10 389.48 807.13 383.06 C 809.62 378.08 809.74 372.27 808.81 366.88 C 808.10 363.53 806.86 360.06 804.21 357.76 C 800.52 354.44 795.14 353.67 790.39 354.45 Z" />
<path fill="#002b49" opacity="1.00" d=" M 954.24 352.66 C 952.41 352.08 953.63 349.62 955.01 349.42 C 963.69 348.68 972.36 350.06 981.05 349.77 C 991.99 349.61 1002.97 350.23 1013.89 349.11 C 1015.55 349.01 1018.60 348.55 1018.72 350.98 C 1019.59 356.62 1020.71 362.26 1020.80 367.98 C 1021.22 369.73 1018.03 370.15 1017.38 368.72 C 1015.68 365.63 1015.23 361.87 1012.84 359.18 C 1010.24 356.69 1006.76 354.85 1003.08 355.00 C 998.67 355.00 994.24 354.86 989.84 355.09 C 987.18 355.13 984.18 356.96 984.29 359.91 C 984.10 367.93 984.32 375.96 984.20 383.98 C 984.34 385.96 983.74 388.69 985.86 389.85 C 991.22 390.08 996.65 390.24 1002.00 389.74 C 1006.99 388.58 1006.08 381.87 1009.97 379.45 C 1011.34 380.29 1011.91 381.49 1011.66 383.05 C 1010.78 391.37 1011.55 399.74 1011.06 408.07 C 1006.84 408.02 1006.94 403.18 1005.45 400.36 C 1004.70 398.02 1002.64 396.01 1000.05 396.26 C 995.19 396.32 990.25 395.81 985.45 396.61 C 983.36 397.03 983.78 399.47 983.70 401.05 C 983.81 409.36 983.59 417.67 983.80 425.97 C 983.70 429.41 986.14 433.03 989.86 432.91 C 997.24 432.80 1005.04 434.07 1012.04 431.12 C 1016.20 429.45 1018.44 425.30 1020.59 421.63 C 1021.55 420.12 1022.14 418.10 1024.06 417.52 C 1025.32 417.86 1025.89 418.67 1025.78 419.96 C 1025.59 425.84 1023.37 431.39 1021.70 436.97 C 1021.45 438.28 1020.42 439.16 1019.06 438.95 C 1002.33 439.17 985.59 438.77 968.87 439.15 C 964.16 439.75 959.57 438.39 954.92 438.04 C 953.24 438.35 952.56 435.53 953.96 434.92 C 957.10 433.26 961.01 433.17 963.73 430.70 C 965.72 428.71 965.55 425.63 965.75 423.04 C 965.81 405.36 965.74 387.68 965.78 370.01 C 965.54 365.83 966.34 361.26 964.32 357.43 C 961.73 354.54 957.35 354.72 954.24 352.66 Z" />
<path fill="#002b49" opacity="1.00" d=" M 368.50 416.26 C 372.91 416.25 377.34 416.25 381.76 416.26 C 381.75 419.25 381.75 422.24 381.76 425.24 C 384.58 425.25 387.41 425.25 390.24 425.24 C 390.25 422.24 390.24 419.24 390.24 416.25 C 395.33 416.25 400.42 416.24 405.51 416.26 C 405.49 423.09 405.49 429.91 405.51 436.73 C 402.83 436.75 400.16 436.75 397.50 436.76 C 397.50 451.47 397.49 466.18 397.50 480.89 L 397.03 480.84 C 397.01 466.02 396.84 451.18 397.16 436.36 C 399.75 436.31 402.35 436.26 404.95 436.21 C 405.01 429.73 405.03 423.25 404.94 416.77 C 400.22 416.59 395.50 416.59 390.79 416.79 C 390.73 419.74 390.68 422.69 390.63 425.65 C 387.54 425.67 384.45 425.68 381.37 425.69 C 381.32 422.71 381.27 419.72 381.23 416.74 C 377.20 416.61 373.17 416.61 369.15 416.74 C 369.04 419.76 368.92 422.77 368.79 425.79 C 365.84 425.70 362.90 425.59 359.96 425.40 C 362.80 425.25 365.65 425.23 368.50 425.22 C 368.50 422.23 368.50 419.25 368.50 416.26 Z" />
</g>
<g id="#0fa8bdff">
<path fill="#0fa8bd" opacity="1.00" d=" M 331.04 39.30 C 336.43 36.26 342.32 32.74 348.77 33.63 C 348.09 39.24 343.97 43.45 341.16 48.10 C 337.71 53.46 335.05 59.28 331.84 64.78 C 330.08 68.10 328.03 71.47 327.91 75.34 C 333.41 72.93 335.48 66.63 340.22 63.24 C 344.14 61.66 348.50 64.07 350.66 67.41 C 356.00 75.58 356.19 85.61 357.48 94.95 C 360.96 109.24 363.59 123.72 366.35 138.16 C 367.40 144.31 370.76 150.17 369.79 156.57 C 369.20 161.50 366.05 165.50 363.53 169.59 C 362.34 171.33 360.60 173.58 358.18 172.93 C 352.83 168.67 348.86 162.10 341.93 160.24 L 340.92 160.70 L 340.57 161.80 C 343.56 167.61 349.58 171.79 350.67 178.61 C 344.64 176.16 337.69 175.61 332.38 171.63 C 326.71 167.03 330.40 158.52 325.70 153.33 C 319.71 146.82 311.63 142.83 304.98 137.11 C 303.51 136.10 303.00 134.35 302.48 132.75 C 304.84 132.93 307.16 133.49 309.53 133.55 C 311.63 133.26 311.55 130.00 309.49 129.64 C 302.71 127.12 294.31 126.53 289.81 120.08 C 283.66 112.32 287.87 100.65 295.44 95.52 C 298.55 92.90 303.10 91.94 305.28 88.31 C 297.89 87.89 290.43 91.02 285.16 96.13 C 279.74 101.43 278.65 109.81 280.45 116.91 C 282.63 124.87 288.20 131.35 294.36 136.61 C 299.46 140.85 304.68 144.96 309.71 149.28 C 312.74 151.94 316.44 153.96 318.67 157.43 C 321.09 160.80 320.45 165.27 322.16 168.94 C 324.04 173.01 326.62 177.38 331.09 178.94 C 333.87 180.07 337.29 180.09 339.37 182.54 C 347.27 190.98 354.82 200.24 358.68 211.30 C 361.06 218.09 363.65 224.86 365.02 231.95 C 365.63 235.67 365.94 240.31 362.77 243.01 C 360.49 243.58 358.25 242.65 356.12 241.95 C 351.02 228.51 344.12 214.38 331.07 207.05 C 327.71 205.36 323.89 202.37 320.05 204.28 C 321.02 209.97 326.23 213.18 329.87 217.12 C 335.84 223.45 340.78 230.81 344.29 238.77 C 347.25 246.06 339.62 252.62 340.73 259.75 C 344.56 258.38 347.05 254.62 351.08 253.63 C 353.31 252.92 355.65 253.54 357.82 254.17 C 374.57 259.54 390.98 265.94 407.75 271.26 C 412.20 272.87 416.61 270.38 421.01 269.81 C 425.64 269.10 431.19 268.56 434.97 271.95 C 439.90 276.57 444.02 282.91 443.62 289.94 C 443.34 295.61 440.20 300.51 437.26 305.16 C 431.76 313.98 426.11 322.69 420.49 331.43 C 416.63 337.27 415.09 344.31 411.15 350.11 C 409.45 352.91 405.55 353.12 403.91 356.00 C 400.75 360.84 398.66 366.34 397.41 371.97 C 396.21 377.50 393.92 383.95 388.02 385.92 C 378.63 389.23 371.30 396.57 361.97 399.92 C 358.91 401.05 357.77 397.22 357.53 394.95 C 356.83 387.92 358.09 380.84 359.91 374.07 C 361.39 369.21 363.53 363.80 368.38 361.42 C 372.18 359.62 376.20 362.17 380.07 361.69 C 382.52 360.76 382.07 357.70 381.29 355.74 C 379.95 351.73 375.84 348.59 376.68 344.01 C 377.13 339.72 381.25 337.50 384.67 335.73 C 390.70 332.40 396.58 328.31 400.51 322.54 C 404.09 316.68 403.54 309.51 405.09 303.02 C 405.60 301.15 405.88 298.60 408.05 297.92 C 410.95 298.38 413.53 299.90 416.28 300.87 C 418.26 295.86 413.81 291.34 409.59 289.41 C 404.79 287.28 399.20 285.25 394.03 287.35 C 380.98 291.97 369.50 299.94 357.37 306.47 C 353.53 308.35 349.44 310.66 345.01 310.08 C 341.83 309.05 340.36 305.69 338.86 302.99 C 334.76 294.73 330.14 285.95 321.88 281.17 C 320.41 280.19 317.60 279.68 317.04 281.94 C 316.29 287.11 320.10 291.18 322.99 294.97 C 326.81 300.44 330.87 306.90 329.42 313.90 C 327.71 320.80 320.74 323.98 315.06 327.12 C 282.81 343.99 249.80 359.34 216.99 375.09 C 213.20 376.62 209.16 378.74 204.96 377.87 C 201.83 376.09 202.61 371.96 202.97 368.98 C 204.08 362.98 205.21 356.97 206.16 350.94 C 206.61 348.21 206.35 345.43 205.54 342.80 C 202.14 343.64 200.09 346.74 198.81 349.79 C 192.40 370.20 190.97 391.70 190.13 412.95 C 189.82 416.65 189.85 420.59 188.15 423.98 C 184.61 429.98 178.62 433.93 172.96 437.72 C 154.05 449.60 133.37 458.23 113.75 468.81 C 108.67 471.80 103.18 474.70 99.61 479.54 C 95.95 485.91 97.34 493.74 99.36 500.42 C 104.30 516.21 116.51 527.97 126.66 540.49 C 128.92 543.44 129.13 547.44 127.86 550.86 C 127.40 553.02 125.84 556.13 128.39 557.54 C 133.34 560.00 139.33 559.69 144.01 562.83 C 146.23 564.14 147.59 566.47 148.28 568.89 C 150.95 577.10 153.77 585.28 155.83 593.67 C 143.22 593.66 130.61 593.61 118.00 593.69 C 115.10 591.03 111.93 587.29 113.03 583.05 C 114.46 578.48 117.54 574.57 118.58 569.86 C 119.07 568.41 118.12 567.04 116.88 566.38 C 110.36 566.33 104.51 570.31 97.98 570.18 C 95.16 570.22 94.08 567.05 92.85 565.03 C 86.89 552.50 83.53 538.91 77.49 526.42 C 71.58 515.16 65.17 504.16 58.76 493.18 C 55.06 487.05 51.18 480.41 51.58 472.98 C 51.47 468.74 53.94 464.68 57.61 462.63 C 69.15 456.16 81.64 450.70 91.11 441.20 C 102.63 430.30 101.20 409.85 89.55 399.54 C 78.90 389.01 60.11 389.00 49.45 399.53 C 39.24 408.60 36.80 425.21 44.65 436.54 C 46.94 440.45 50.81 442.97 53.73 446.33 C 55.25 448.23 53.25 449.82 51.62 450.57 C 43.45 454.89 37.77 462.62 33.51 470.61 C 31.32 474.42 30.33 479.01 26.96 482.06 C 25.82 480.23 25.29 478.11 25.34 475.97 C 25.49 463.98 24.74 452.01 25.00 440.02 C 25.32 429.37 23.52 418.42 26.74 408.06 C 28.62 401.57 32.28 395.76 36.69 390.70 C 30.46 386.72 25.97 379.54 26.99 371.96 C 27.91 360.36 36.30 351.59 42.73 342.58 C 57.73 321.33 75.16 301.79 88.49 279.38 C 90.97 275.27 93.72 271.00 93.96 266.06 C 94.68 257.49 89.93 248.86 82.48 244.66 C 75.85 240.67 67.09 240.58 60.35 244.36 C 53.33 248.23 48.38 255.88 48.33 263.98 C 48.03 269.26 50.39 274.31 53.51 278.44 C 55.60 281.30 59.12 282.90 60.75 286.13 C 62.14 289.19 61.29 292.82 59.33 295.45 C 53.17 304.22 46.77 312.82 40.57 321.56 C 38.53 324.40 36.57 327.82 33.09 329.04 C 29.53 329.15 29.57 324.61 29.12 322.05 C 28.56 302.03 29.70 282.02 29.31 261.99 C 29.48 260.53 28.40 259.14 26.99 258.86 C 19.33 257.94 11.42 259.73 3.88 257.83 C 4.65 256.38 5.55 254.95 7.01 254.11 C 14.32 249.28 21.90 244.88 29.48 240.48 C 32.78 238.49 36.49 236.99 39.13 234.07 C 35.58 230.68 31.08 228.62 27.07 225.89 C 25.66 224.94 24.36 223.71 23.79 222.07 C 23.57 220.37 25.73 219.91 26.99 219.89 C 38.31 219.49 49.61 220.92 60.92 220.60 C 63.48 220.92 64.76 218.28 64.85 216.14 C 63.35 211.91 60.37 208.25 59.76 203.70 C 62.46 204.08 64.83 205.48 66.91 207.16 C 74.64 213.21 82.83 218.62 90.92 224.16 C 92.57 225.59 95.28 225.17 96.16 223.10 C 97.98 218.06 97.91 211.99 101.99 208.03 C 104.76 211.44 105.18 215.93 106.13 220.06 C 108.03 228.84 109.67 237.68 111.66 246.44 C 111.96 248.47 113.73 250.94 116.04 250.23 C 122.33 247.60 127.14 241.66 134.02 240.47 C 136.63 239.86 134.56 243.21 134.13 244.24 C 124.30 258.71 113.90 272.82 104.18 287.37 C 92.17 304.00 79.39 320.06 67.81 336.99 C 62.00 345.71 54.99 353.59 49.53 362.54 C 47.57 365.79 46.32 369.80 47.58 373.53 C 48.50 376.20 50.86 377.89 53.08 379.43 C 57.27 378.04 61.49 376.36 65.98 376.38 C 69.29 376.30 73.48 376.86 75.37 373.43 C 88.96 354.79 100.87 334.70 117.24 318.25 C 123.78 311.69 132.07 307.29 140.43 303.50 C 155.19 296.78 170.68 291.66 185.03 284.05 C 190.32 281.22 195.42 277.96 199.71 273.74 C 208.90 264.74 217.40 254.73 222.87 242.98 C 227.82 232.93 230.18 221.85 231.36 210.78 C 231.87 196.17 232.04 181.54 231.91 166.92 C 232.41 144.46 233.06 121.61 239.62 99.94 C 243.52 87.41 250.14 74.90 261.44 67.59 C 272.95 60.03 284.97 52.69 298.44 49.28 C 302.69 48.38 307.43 47.58 311.51 49.52 C 315.25 52.21 316.49 57.06 319.87 60.13 C 320.11 56.36 319.21 52.34 320.90 48.80 C 322.88 44.43 327.13 41.77 331.04 39.30 M 316.67 87.04 C 319.38 90.36 323.56 91.69 326.88 94.21 C 328.45 96.35 328.49 99.56 330.92 101.06 C 333.32 102.31 336.21 102.07 338.66 103.24 C 340.54 104.76 341.17 107.75 343.79 108.27 C 343.15 105.25 342.10 102.22 342.70 99.10 C 343.90 94.30 338.91 91.48 335.39 89.59 C 329.60 87.13 322.90 85.03 316.67 87.04 M 355.90 149.03 C 354.68 150.70 353.50 153.92 355.97 155.12 C 358.45 156.91 360.93 158.71 362.96 161.03 C 363.87 158.58 365.64 155.96 364.72 153.27 C 363.21 149.99 359.27 148.72 355.90 149.03 Z" />
<path fill="#0fa8bd" opacity="1.00" d=" M 357.57 49.47 C 366.77 47.17 376.50 44.49 385.95 46.99 C 386.95 47.14 388.48 48.57 387.39 49.53 C 384.42 52.58 380.90 55.04 377.58 57.69 C 371.90 61.70 366.47 66.79 359.46 68.21 C 358.03 65.02 356.57 61.56 353.56 59.52 C 350.40 57.09 346.34 56.65 342.63 55.57 C 346.89 52.10 352.46 51.11 357.57 49.47 Z" />
<path fill="#0fa8bd" opacity="1.00" d=" M 75.05 70.12 C 77.36 64.09 80.97 57.79 87.28 55.28 C 87.46 60.24 87.35 65.19 87.37 70.15 C 83.26 70.16 79.15 70.17 75.05 70.12 Z" />
<path fill="#0fa8bd" opacity="1.00" d=" M 92.41 55.75 C 99.08 57.83 102.39 64.60 104.87 70.58 C 100.85 70.48 96.68 71.14 92.74 70.31 C 91.78 65.61 92.57 60.57 92.41 55.75 Z" />
<path fill="#0fa8bd" opacity="1.00" d=" M 104.06 57.37 C 111.03 59.65 117.69 63.90 121.82 70.07 C 118.00 70.21 114.19 70.16 110.37 70.13 C 109.07 65.50 106.31 61.55 104.06 57.37 Z" />
<path fill="#0fa8bd" opacity="1.00" d=" M 58.13 70.38 C 62.70 64.77 68.79 60.32 75.74 58.21 C 73.71 62.35 71.43 66.37 69.77 70.68 C 65.89 70.63 61.99 70.81 58.13 70.38 Z" />
<path fill="#0fa8bd" opacity="1.00" d=" M 361.46 74.94 C 360.68 72.76 363.43 72.14 365.00 72.34 C 410.68 72.35 456.36 72.35 502.04 72.34 C 503.56 72.28 504.94 72.72 506.19 73.65 C 501.62 76.91 496.19 78.54 490.89 80.17 C 480.16 83.52 468.96 84.81 457.88 86.45 C 428.89 90.50 399.85 94.15 370.81 97.75 C 367.83 98.48 365.33 95.97 364.84 93.20 C 363.43 87.17 363.01 80.95 361.46 74.94 Z" />
<path fill="#0fa8bd" opacity="1.00" d=" M 55.00 75.63 C 59.46 75.62 63.92 75.61 68.38 75.65 C 67.14 81.56 66.23 87.55 66.05 93.59 C 60.48 93.71 54.91 93.62 49.34 93.68 C 50.12 87.37 51.90 81.20 55.00 75.63 Z" />
<path fill="#0fa8bd" opacity="1.00" d=" M 73.16 75.71 C 78.08 75.59 83.01 75.51 87.93 75.79 C 88.03 81.88 88.08 87.98 87.89 94.07 C 82.19 94.22 76.50 94.18 70.80 94.09 C 70.81 87.89 71.92 81.76 73.16 75.71 Z" />
<path fill="#0fa8bd" opacity="1.00" d=" M 92.38 75.39 C 97.26 75.31 102.13 75.35 107.01 75.35 C 108.37 81.32 109.37 87.40 109.46 93.54 C 103.76 93.68 98.04 93.84 92.35 93.43 C 92.35 87.42 92.31 81.41 92.38 75.39 Z" />
<path fill="#0fa8bd" opacity="1.00" d=" M 112.59 75.64 C 117.33 75.62 122.06 75.60 126.80 75.66 C 129.66 81.22 132.04 87.25 132.00 93.61 C 126.33 93.70 120.66 93.62 114.99 93.68 C 114.85 87.59 114.04 81.54 112.59 75.64 Z" />
<path fill="#0fa8bd" opacity="1.00" d=" M 48.89 98.94 C 54.62 98.78 60.35 98.82 66.08 98.91 C 66.13 105.09 67.33 111.15 68.33 117.23 C 63.79 117.47 59.25 117.34 54.71 117.41 C 51.30 111.83 49.35 105.45 48.89 98.94 Z" />
<path fill="#0fa8bd" opacity="1.00" d=" M 70.80 98.91 C 76.50 98.81 82.19 98.79 87.88 98.92 C 88.11 105.03 87.96 111.15 88.00 117.26 C 83.06 117.46 78.11 117.40 73.16 117.32 C 72.04 111.23 70.75 105.13 70.80 98.91 Z" />
<path fill="#0fa8bd" opacity="1.00" d=" M 92.33 98.76 C 98.03 98.49 103.74 98.66 109.44 98.64 C 109.39 104.82 108.39 110.94 106.97 116.94 C 102.20 117.04 97.43 116.98 92.66 117.02 C 92.00 110.95 92.50 104.84 92.33 98.76 Z" />
<path fill="#0fa8bd" opacity="1.00" d=" M 114.45 99.10 C 120.09 98.62 125.75 98.91 131.40 98.87 C 130.49 105.14 128.78 111.32 125.76 116.92 C 121.28 117.05 116.79 117.00 112.31 116.99 C 113.52 111.10 114.43 105.13 114.45 99.10 Z" />
<path fill="#0fa8bd" opacity="1.00" d=" M 58.88 122.42 C 62.50 122.23 66.14 122.39 69.76 122.31 C 71.47 126.87 73.95 131.05 76.31 135.29 C 70.30 133.47 64.92 129.87 60.58 125.38 C 59.81 124.53 58.81 123.68 58.88 122.42 Z" />
<path fill="#0fa8bd" opacity="1.00" d=" M 75.33 122.48 C 79.56 122.28 83.80 122.21 88.02 122.59 C 87.96 127.51 88.09 132.43 87.89 137.35 C 81.24 135.16 77.91 128.46 75.33 122.48 Z" />
<path fill="#0fa8bd" opacity="1.00" d=" M 92.41 122.42 C 96.56 122.31 100.72 122.30 104.88 122.42 C 102.40 128.46 98.86 134.95 92.38 137.36 C 92.32 132.38 92.31 127.40 92.41 122.42 Z" />
<path fill="#0fa8bd" opacity="1.00" d=" M 110.78 122.39 C 114.64 122.33 118.51 122.27 122.38 122.46 C 118.26 128.50 111.65 132.57 104.80 134.85 C 106.92 130.76 109.28 126.77 110.78 122.39 Z" />
</g>
<g id="#02405746">
<path fill="#024057" opacity="0.27" d=" M 705.28 66.03 C 705.97 63.57 709.06 64.21 710.99 64.04 C 723.87 64.34 736.79 63.54 749.64 64.50 C 750.41 73.70 749.41 82.95 750.26 92.15 C 750.04 92.31 749.61 92.65 749.40 92.81 C 749.20 92.74 748.81 92.58 748.61 92.50 C 749.55 83.31 748.78 74.05 749.06 64.83 C 734.69 65.14 720.32 64.87 705.95 64.97 C 705.90 75.03 706.16 85.10 705.79 95.15 C 704.39 90.23 705.31 85.04 705.07 80.00 C 705.16 75.35 704.77 70.67 705.28 66.03 Z" />
<path fill="#024057" opacity="0.27" d=" M 231.36 210.78 C 231.78 196.18 231.30 181.52 231.91 166.92 C 232.04 181.54 231.87 196.17 231.36 210.78 Z" />
<path fill="#024057" opacity="0.27" d=" M 343.98 416.05 C 349.00 415.96 354.01 416.00 359.03 415.93 C 359.18 416.12 359.47 416.50 359.61 416.69 C 354.93 417.54 349.91 415.94 345.40 417.36 C 344.25 423.55 345.05 430.07 344.85 436.40 C 347.53 436.14 350.24 436.17 352.92 436.59 C 352.68 451.36 352.89 466.13 352.86 480.90 L 352.59 480.92 C 352.82 466.28 352.86 451.63 352.63 436.99 C 349.96 436.99 347.28 436.92 344.62 436.75 C 345.23 429.83 344.34 422.95 343.98 416.05 Z" />
<path fill="#024057" opacity="0.27" d=" M 248.42 435.47 C 253.84 434.80 259.33 434.85 264.76 435.48 C 265.04 438.98 265.03 442.50 265.01 446.01 C 268.91 445.83 272.89 446.33 276.76 445.76 C 277.35 442.23 276.83 438.60 277.01 435.04 C 281.51 435.02 286.04 434.86 290.52 435.43 C 291.02 438.93 291.11 442.48 290.74 446.00 C 294.88 445.99 299.02 445.96 303.16 446.07 C 302.99 442.39 302.96 438.71 303.01 435.03 C 308.47 435.12 313.95 434.74 319.39 435.35 C 319.22 446.23 319.02 457.15 319.97 468.00 C 319.84 478.70 320.20 489.41 319.77 500.10 C 323.73 499.95 327.69 499.97 331.64 500.05 C 331.84 493.70 331.69 487.35 331.79 481.00 C 331.84 487.52 331.84 494.04 331.81 500.56 C 327.63 501.05 323.40 500.97 319.23 500.40 C 318.73 492.59 319.58 484.78 319.29 476.96 C 318.81 463.26 319.10 449.55 319.15 435.84 C 314.26 436.38 309.12 435.24 304.38 436.38 C 303.29 439.56 303.94 443.15 303.36 446.48 C 299.16 446.96 294.93 446.82 290.71 446.92 C 289.81 443.25 289.98 439.47 290.28 435.75 C 286.34 436.30 282.17 435.28 278.37 436.38 C 277.15 439.62 278.09 443.31 277.85 446.73 C 273.26 446.90 268.60 447.23 264.08 446.24 C 264.06 442.68 264.12 439.11 264.52 435.57 C 259.27 436.05 253.99 436.12 248.73 435.68 C 249.25 467.11 248.81 498.56 248.95 530.00 C 248.24 551.35 249.52 572.71 248.74 594.06 C 286.81 594.27 324.91 593.73 362.98 594.22 C 397.99 593.98 432.99 594.16 468.00 594.03 C 479.57 594.27 491.18 593.59 502.73 594.38 C 501.26 595.08 499.58 594.98 498.01 595.02 C 479.67 594.87 461.34 595.08 443.00 594.93 C 428.68 593.83 414.34 595.31 400.00 594.97 C 392.65 595.32 385.33 594.14 378.00 594.93 C 354.67 595.02 331.33 594.95 308.00 594.98 C 296.66 595.18 285.32 593.88 274.00 594.89 C 265.49 595.02 256.96 595.06 248.46 594.83 C 247.35 586.57 249.16 578.27 248.06 570.00 C 248.12 529.66 248.01 489.34 248.03 449.00 C 248.15 444.49 247.88 439.96 248.42 435.47 Z" />
<path fill="#024057" opacity="0.27" d=" M 430.37 500.04 C 431.29 487.38 430.35 474.65 430.87 461.97 C 430.74 474.83 430.88 487.70 430.83 500.57 C 426.68 501.06 422.50 500.89 418.38 500.32 C 417.92 493.98 417.98 487.60 418.36 481.26 C 418.92 482.42 418.77 483.74 418.72 485.00 C 418.35 490.06 418.58 495.14 418.52 500.22 C 422.46 499.97 426.42 499.94 430.37 500.04 Z" />
<path fill="#024057" opacity="0.27" d=" M 893.04 526.00 C 893.08 521.66 892.60 517.17 894.18 513.02 C 893.50 535.59 894.48 558.23 893.70 580.80 C 893.01 579.66 893.02 578.29 893.00 577.03 C 893.07 560.02 893.06 543.01 893.04 526.00 Z" />
<path fill="#024057" opacity="0.27" d=" M 1539.33 547.19 C 1539.19 536.75 1538.76 526.27 1539.57 515.86 C 1538.94 526.25 1539.31 536.69 1539.40 547.10 C 1553.26 546.87 1567.14 547.07 1581.00 547.00 C 1582.65 546.58 1582.18 544.27 1582.61 543.02 C 1582.81 534.31 1582.88 525.59 1582.53 516.88 C 1583.12 527.10 1582.80 537.36 1582.80 547.60 C 1574.87 548.06 1566.93 547.82 1559.00 547.89 C 1552.44 547.77 1545.83 548.31 1539.33 547.19 Z" />
<path fill="#024057" opacity="0.27" d=" M 285.22 520.55 C 287.95 519.75 290.94 519.81 293.73 520.27 C 294.28 532.47 293.80 544.76 293.96 557.00 C 293.88 561.25 294.20 565.54 293.60 569.77 C 292.91 567.25 293.09 564.58 293.01 562.00 C 293.10 548.07 292.88 534.14 293.17 520.21 C 290.58 520.28 287.99 520.44 285.42 520.67 L 285.22 520.55 Z" />
<path fill="#024057" opacity="0.27" d=" M 1035.00 533.99 C 1034.94 531.83 1035.50 529.73 1036.12 527.69 L 1036.40 527.94 C 1035.26 545.94 1036.59 564.06 1035.71 582.09 C 1034.70 578.13 1035.08 574.03 1035.03 570.00 C 1035.21 558.00 1034.97 545.99 1035.00 533.99 Z" />
</g>
</svg>
